<svg width="1920" height="932" viewBox="0 0 1920 932" xmlns="http://www.w3.org/2000/svg"><g><path d="M-56,-27L-75,136L-35,47Z" fill="#f6feff" stroke="#f6feff"/><path d="M-56,-27L-35,47L64,15Z" fill="#f6fcfe" stroke="#f6fcfe"/><path d="M-56,-27L64,15L66,-60Z" fill="#f4fafc" stroke="#f4fafc"/><path d="M66,-60L64,15L169,-16Z" fill="#eff6fa" stroke="#eff6fa"/><path d="M66,-60L169,-16L192,-44Z" fill="#ecf4f9" stroke="#ecf4f9"/><path d="M66,-60L192,-44L342,-51Z" fill="#e8f0f7" stroke="#e8f0f7"/><path d="M66,-60L342,-51L616,-65Z" fill="#dee8f2" stroke="#dee8f2"/><path d="M66,-60L616,-65L1300,-74Z" fill="#ceddec" stroke="#ceddec"/><path d="M169,-16L64,15L145,61Z" fill="#ecf4f9" stroke="#ecf4f9"/><path d="M169,-16L145,61L200,70Z" fill="#e6f1f8" stroke="#e6f1f8"/><path d="M169,-16L200,70L192,-44Z" fill="#e8f1f7" stroke="#e8f1f7"/><path d="M192,-44L200,70L334,44Z" fill="#e3eef5" stroke="#e3eef5"/><path d="M192,-44L334,44L342,-51Z" fill="#e1ebf4" stroke="#e1ebf4"/><path d="M342,-51L334,44L387,43Z" fill="#dce8f2" stroke="#dce8f2"/><path d="M342,-51L387,43L424,-42Z" fill="#dce7f2" stroke="#dce7f2"/><path d="M342,-51L424,-42L616,-65Z" fill="#d8e4f0" stroke="#d8e4f0"/><path d="M424,-42L387,43L480,-37Z" fill="#dae5f1" stroke="#dae5f1"/><path d="M424,-42L480,-37L616,-65Z" fill="#d6e3ef" stroke="#d6e3ef"/><path d="M480,-37L387,43L528,36Z" fill="#d7e4f0" stroke="#d7e4f0"/><path d="M480,-37L528,36L616,-65Z" fill="#d4e1ef" stroke="#d4e1ef"/><path d="M616,-65L528,36L571,50Z" fill="#d2e0ee" stroke="#d2e0ee"/><path d="M616,-65L571,50L693,-33Z" fill="#cfdeed" stroke="#cfdeed"/><path d="M616,-65L693,-33L889,-49Z" fill="#ccd8ea" stroke="#ccd8ea"/><path d="M616,-65L889,-49L1146,-62Z" fill="#c8cfe5" stroke="#c8cfe5"/><path d="M616,-65L1146,-62L1300,-74Z" fill="#c5c5e0" stroke="#c5c5e0"/><path d="M693,-33L571,50L708,66Z" fill="#ccdcec" stroke="#ccdcec"/><path d="M693,-33L708,66L738,-19Z" fill="#ccd9ea" stroke="#ccd9ea"/><path d="M693,-33L738,-19L889,-49Z" fill="#cbd6e9" stroke="#cbd6e9"/><path d="M738,-19L708,66L788,64Z" fill="#c9d7e9" stroke="#c9d7e9"/><path d="M738,-19L788,64L884,32Z" fill="#c8d4e8" stroke="#c8d4e8"/><path d="M738,-19L884,32L889,-49Z" fill="#c9d2e7" stroke="#c9d2e7"/><path d="M889,-49L884,32L955,-28Z" fill="#c7cee4" stroke="#c7cee4"/><path d="M889,-49L955,-28L1059,-35Z" fill="#c6cae2" stroke="#c6cae2"/><path d="M889,-49L1059,-35L1146,-62Z" fill="#c5c4df" stroke="#c5c4df"/><path d="M955,-28L884,32L922,52Z" fill="#c5cde4" stroke="#c5cde4"/><path d="M955,-28L922,52L1019,38Z" fill="#c4cae2" stroke="#c4cae2"/><path d="M955,-28L1019,38L1059,-35Z" fill="#c5c6e0" stroke="#c5c6e0"/><path d="M1059,-35L1019,38L1131,35Z" fill="#c4c0dd" stroke="#c4c0dd"/><path d="M1059,-35L1131,35L1146,-62Z" fill="#c5bcdb" stroke="#c5bcdb"/><path d="M1146,-62L1131,35L1197,53Z" fill="#c4b7d9" stroke="#c4b7d9"/><path d="M1146,-62L1197,53L1233,-40Z" fill="#c4b4d8" stroke="#c4b4d8"/><path d="M1146,-62L1233,-40L1300,-74Z" fill="#c4b0d6" stroke="#c4b0d6"/><path d="M1233,-40L1197,53L1277,42Z" fill="#c3afd5" stroke="#c3afd5"/><path d="M1233,-40L1277,42L1300,-74Z" fill="#c4acd4" stroke="#c4acd4"/><path d="M1300,-74L1277,42L1381,-27Z" fill="#c3a6d1" stroke="#c3a6d1"/><path d="M1300,-74L1381,-27L1480,-39Z" fill="#c39fcc" stroke="#c39fcc"/><path d="M1300,-74L1480,-39L1688,-70Z" fill="#c194c5" stroke="#c194c5"/><path d="M1300,-74L1688,-70L1900,-76Z" fill="#c084bc" stroke="#c084bc"/><path d="M1381,-27L1277,42L1384,42Z" fill="#c2a3cf" stroke="#c2a3cf"/><path d="M1381,-27L1384,42L1470,24Z" fill="#c19cca" stroke="#c19cca"/><path d="M1381,-27L1470,24L1480,-39Z" fill="#c299c8" stroke="#c299c8"/><path d="M1480,-39L1470,24L1558,-14Z" fill="#c192c4" stroke="#c192c4"/><path d="M1480,-39L1558,-14L1688,-70Z" fill="#c18abf" stroke="#c18abf"/><path d="M1558,-14L1470,24L1558,50Z" fill="#c08fc3" stroke="#c08fc3"/><path d="M1558,-14L1558,50L1643,24Z" fill="#bf89bf" stroke="#bf89bf"/><path d="M1558,-14L1643,24L1688,-70Z" fill="#c084bc" stroke="#c084bc"/><path d="M1688,-70L1643,24L1744,62Z" fill="#bf80b8" stroke="#bf80b8"/><path d="M1688,-70L1744,62L1774,-69Z" fill="#bf80b5" stroke="#bf80b5"/><path d="M1688,-70L1774,-69L1900,-76Z" fill="#be80b1" stroke="#be80b1"/><path d="M1774,-69L1744,62L1837,31Z" fill="#be80b1" stroke="#be80b1"/><path d="M1774,-69L1837,31L1871,-30Z" fill="#be80ae" stroke="#be80ae"/><path d="M1774,-69L1871,-30L1900,-76Z" fill="#be80ad" stroke="#be80ad"/><path d="M1871,-30L1837,31L1909,40Z" fill="#bc80ab" stroke="#bc80ab"/><path d="M1871,-30L1909,40L1900,-76Z" fill="#bd80aa" stroke="#bd80aa"/><path d="M1900,-76L1909,40L2005,-11Z" fill="#bd80a7" stroke="#bd80a7"/><path d="M1900,-76L2005,-11L2057,19Z" fill="#bc80a4" stroke="#bc80a4"/><path d="M2005,-11L1909,40L1924,124Z" fill="#b87fa7" stroke="#b87fa7"/><path d="M2005,-11L1924,124L2057,19Z" fill="#b87fa3" stroke="#b87fa3"/><path d="M-35,47L-75,136L33,120Z" fill="#effcfe" stroke="#effcfe"/><path d="M-35,47L33,120L64,15Z" fill="#effafd" stroke="#effafd"/><path d="M64,15L33,120L145,61Z" fill="#ebf7fb" stroke="#ebf7fb"/><path d="M145,61L33,120L110,149Z" fill="#e6f5fa" stroke="#e6f5fa"/><path d="M145,61L110,149L199,144Z" fill="#e1f2f8" stroke="#e1f2f8"/><path d="M145,61L199,144L200,70Z" fill="#e1f0f7" stroke="#e1f0f7"/><path d="M200,70L199,144L291,149Z" fill="#dbedf6" stroke="#dbedf6"/><path d="M200,70L291,149L334,44Z" fill="#dbebf4" stroke="#dbebf4"/><path d="M334,44L291,149L376,149Z" fill="#d5e8f2" stroke="#d5e8f2"/><path d="M334,44L376,149L387,43Z" fill="#d6e7f2" stroke="#d6e7f2"/><path d="M387,43L376,149L507,105Z" fill="#d1e5f1" stroke="#d1e5f1"/><path d="M387,43L507,105L528,36Z" fill="#d2e3f0" stroke="#d2e3f0"/><path d="M528,36L507,105L571,50Z" fill="#cfe1ef" stroke="#cfe1ef"/><path d="M571,50L507,105L563,132Z" fill="#cbe0ee" stroke="#cbe0ee"/><path d="M571,50L563,132L708,66Z" fill="#c9deed" stroke="#c9deed"/><path d="M708,66L563,132L704,169Z" fill="#c4dcec" stroke="#c4dcec"/><path d="M708,66L704,169L761,105Z" fill="#c2d8ea" stroke="#c2d8ea"/><path d="M708,66L761,105L788,64Z" fill="#c5d6e9" stroke="#c5d6e9"/><path d="M788,64L761,105L889,149Z" fill="#c1d2e7" stroke="#c1d2e7"/><path d="M788,64L889,149L884,32Z" fill="#c2d0e6" stroke="#c2d0e6"/><path d="M884,32L889,149L922,52Z" fill="#c1cee5" stroke="#c1cee5"/><path d="M922,52L889,149L976,156Z" fill="#bccce4" stroke="#bccce4"/><path d="M922,52L976,156L1019,38Z" fill="#bfc9e2" stroke="#bfc9e2"/><path d="M1019,38L976,156L1034,140Z" fill="#bcc5e0" stroke="#bcc5e0"/><path d="M1019,38L1034,140L1131,35Z" fill="#bfc0de" stroke="#bfc0de"/><path d="M1131,35L1034,140L1116,158Z" fill="#bbbcdc" stroke="#bbbcdc"/><path d="M1131,35L1116,158L1197,53Z" fill="#beb7da" stroke="#beb7da"/><path d="M1197,53L1116,158L1214,156Z" fill="#bab4d8" stroke="#bab4d8"/><path d="M1197,53L1214,156L1277,42Z" fill="#bdafd6" stroke="#bdafd6"/><path d="M1277,42L1214,156L1287,150Z" fill="#baacd4" stroke="#baacd4"/><path d="M1277,42L1287,150L1384,42Z" fill="#bca6d1" stroke="#bca6d1"/><path d="M1384,42L1287,150L1419,126Z" fill="#baa1ce" stroke="#baa1ce"/><path d="M1384,42L1419,126L1470,24Z" fill="#bd9aca" stroke="#bd9aca"/><path d="M1470,24L1419,126L1476,155Z" fill="#b996c7" stroke="#b996c7"/><path d="M1470,24L1476,155L1556,112Z" fill="#b991c4" stroke="#b991c4"/><path d="M1470,24L1556,112L1558,50Z" fill="#bc8fc3" stroke="#bc8fc3"/><path d="M1558,50L1556,112L1643,24Z" fill="#bb88bf" stroke="#bb88bf"/><path d="M1643,24L1556,112L1656,151Z" fill="#b884bd" stroke="#b884bd"/><path d="M1643,24L1656,151L1744,62Z" fill="#b87fb8" stroke="#b87fb8"/><path d="M1744,62L1656,151L1778,161Z" fill="#b47fb5" stroke="#b47fb5"/><path d="M1744,62L1778,161L1837,31Z" fill="#b77fb1" stroke="#b77fb1"/><path d="M1837,31L1778,161L1863,147Z" fill="#b47faf" stroke="#b47faf"/><path d="M1837,31L1863,147L1909,40Z" fill="#b77fac" stroke="#b77fac"/><path d="M1909,40L1863,147L1924,124Z" fill="#b47faa" stroke="#b47faa"/><path d="M2057,19L1924,124L2051,136Z" fill="#b47fa2" stroke="#b47fa2"/><path d="M2057,19L2051,136L2053,483Z" fill="#a6799f" stroke="#a6799f"/><path d="M-75,136L-77,563L-63,336Z" fill="#d7ebfd" stroke="#d7ebfd"/><path d="M-75,136L-63,336L-11,245Z" fill="#e1f6ff" stroke="#e1f6ff"/><path d="M-75,136L-11,245L33,120Z" fill="#e9fafe" stroke="#e9fafe"/><path d="M33,120L-11,245L52,228Z" fill="#e1f5fc" stroke="#e1f5fc"/><path d="M33,120L52,228L110,149Z" fill="#e3f5fb" stroke="#e3f5fb"/><path d="M110,149L52,228L163,202Z" fill="#dcf0fa" stroke="#dcf0fa"/><path d="M110,149L163,202L199,144Z" fill="#dcf0f8" stroke="#dcf0f8"/><path d="M199,144L163,202L255,237Z" fill="#d5ebf7" stroke="#d5ebf7"/><path d="M199,144L255,237L291,149Z" fill="#d4eaf5" stroke="#d4eaf5"/><path d="M291,149L255,237L332,249Z" fill="#cce4f4" stroke="#cce4f4"/><path d="M291,149L332,249L376,149Z" fill="#cee5f3" stroke="#cee5f3"/><path d="M376,149L332,249L440,243Z" fill="#c7e0f2" stroke="#c7e0f2"/><path d="M376,149L440,243L508,204Z" fill="#c6dff0" stroke="#c6dff0"/><path d="M376,149L508,204L507,105Z" fill="#cae3f0" stroke="#cae3f0"/><path d="M507,105L508,204L563,132Z" fill="#c8e0ef" stroke="#c8e0ef"/><path d="M563,132L508,204L612,199Z" fill="#c2ddee" stroke="#c2ddee"/><path d="M563,132L612,199L704,169Z" fill="#c0dced" stroke="#c0dced"/><path d="M704,169L612,199L643,215Z" fill="#bcd8ec" stroke="#bcd8ec"/><path d="M704,169L643,215L737,210Z" fill="#bad5eb" stroke="#bad5eb"/><path d="M704,169L737,210L761,105Z" fill="#bed6ea" stroke="#bed6ea"/><path d="M761,105L737,210L830,236Z" fill="#bad2e9" stroke="#bad2e9"/><path d="M761,105L830,236L889,149Z" fill="#bbd1e7" stroke="#bbd1e7"/><path d="M889,149L830,236L958,211Z" fill="#b5c9e5" stroke="#b5c9e5"/><path d="M889,149L958,211L976,156Z" fill="#b7c9e3" stroke="#b7c9e3"/><path d="M976,156L958,211L1021,234Z" fill="#b2c3e2" stroke="#b2c3e2"/><path d="M976,156L1021,234L1034,140Z" fill="#b5c2e0" stroke="#b5c2e0"/><path d="M1034,140L1021,234L1101,228Z" fill="#b2bcde" stroke="#b2bcde"/><path d="M1034,140L1101,228L1116,158Z" fill="#b5bbdd" stroke="#b5bbdd"/><path d="M1116,158L1101,228L1214,156Z" fill="#b4b4da" stroke="#b4b4da"/><path d="M1214,156L1101,228L1236,235Z" fill="#b0aed8" stroke="#b0aed8"/><path d="M1214,156L1236,235L1287,150Z" fill="#b3aad5" stroke="#b3aad5"/><path d="M1287,150L1236,235L1323,257Z" fill="#afa4d3" stroke="#afa4d3"/><path d="M1287,150L1323,257L1409,251Z" fill="#ae9dcf" stroke="#ae9dcf"/><path d="M1287,150L1409,251L1419,126Z" fill="#b39dcd" stroke="#b39dcd"/><path d="M1419,126L1409,251L1476,155Z" fill="#b296c9" stroke="#b296c9"/><path d="M1476,155L1409,251L1491,211Z" fill="#ae91c7" stroke="#ae91c7"/><path d="M1476,155L1491,211L1585,198Z" fill="#b08cc3" stroke="#b08cc3"/><path d="M1476,155L1585,198L1556,112Z" fill="#b38dc2" stroke="#b38dc2"/><path d="M1556,112L1585,198L1656,151Z" fill="#b386be" stroke="#b386be"/><path d="M1656,151L1585,198L1659,228Z" fill="#ad7fbc" stroke="#ad7fbc"/><path d="M1656,151L1659,228L1747,213Z" fill="#ac7ab8" stroke="#ac7ab8"/><path d="M1656,151L1747,213L1778,161Z" fill="#af7cb5" stroke="#af7cb5"/><path d="M1778,161L1747,213L1875,190Z" fill="#ad7bb0" stroke="#ad7bb0"/><path d="M1778,161L1875,190L1863,147Z" fill="#af7dae" stroke="#af7dae"/><path d="M1863,147L1875,190L1924,124Z" fill="#b07eaa" stroke="#b07eaa"/><path d="M1924,124L1875,190L2004,214Z" fill="#ad7ca7" stroke="#ad7ca7"/><path d="M1924,124L2004,214L2051,136Z" fill="#ae7ea3" stroke="#ae7ea3"/><path d="M2051,136L2004,214L2014,289Z" fill="#a779a1" stroke="#a779a1"/><path d="M2051,136L2014,289L2034,381Z" fill="#a074a1" stroke="#a074a1"/><path d="M2051,136L2034,381L2053,483Z" fill="#986d9e" stroke="#986d9e"/><path d="M-11,245L-63,336L12,372Z" fill="#d6ecfd" stroke="#d6ecfd"/><path d="M-11,245L12,372L77,329Z" fill="#d2eafc" stroke="#d2eafc"/><path d="M-11,245L77,329L52,228Z" fill="#d7eefc" stroke="#d7eefc"/><path d="M52,228L77,329L163,202Z" fill="#d5ecfa" stroke="#d5ecfa"/><path d="M163,202L77,329L157,337Z" fill="#cee7f9" stroke="#cee7f9"/><path d="M163,202L157,337L255,237Z" fill="#cde6f7" stroke="#cde6f7"/><path d="M255,237L157,337L210,347Z" fill="#c6e1f6" stroke="#c6e1f6"/><path d="M255,237L210,347L332,307Z" fill="#c4def5" stroke="#c4def5"/><path d="M255,237L332,307L332,249Z" fill="#c5dff3" stroke="#c5dff3"/><path d="M332,249L332,307L440,243Z" fill="#c1dcf2" stroke="#c1dcf2"/><path d="M440,243L332,307L382,346Z" fill="#bcd8f2" stroke="#bcd8f2"/><path d="M440,243L382,346L517,295Z" fill="#b9d7f0" stroke="#b9d7f0"/><path d="M440,243L517,295L508,204Z" fill="#bdd9f0" stroke="#bdd9f0"/><path d="M508,204L517,295L561,295Z" fill="#b9d6ef" stroke="#b9d6ef"/><path d="M508,204L561,295L612,199Z" fill="#bbd8ee" stroke="#bbd8ee"/><path d="M612,199L561,295L643,215Z" fill="#b9d6ed" stroke="#b9d6ed"/><path d="M643,215L561,295L700,336Z" fill="#b1d1ed" stroke="#b1d1ed"/><path d="M643,215L700,336L737,210Z" fill="#b3d0eb" stroke="#b3d0eb"/><path d="M737,210L700,336L747,318Z" fill="#aecbea" stroke="#aecbea"/><path d="M737,210L747,318L830,236Z" fill="#b1cbe9" stroke="#b1cbe9"/><path d="M830,236L747,318L877,292Z" fill="#acc6e7" stroke="#acc6e7"/><path d="M830,236L877,292L958,211Z" fill="#afc6e5" stroke="#afc6e5"/><path d="M958,211L877,292L978,285Z" fill="#abc1e3" stroke="#abc1e3"/><path d="M958,211L978,285L1021,234Z" fill="#adbfe2" stroke="#adbfe2"/><path d="M1021,234L978,285L1017,317Z" fill="#a8bae1" stroke="#a8bae1"/><path d="M1021,234L1017,317L1096,308Z" fill="#a7b5df" stroke="#a7b5df"/><path d="M1021,234L1096,308L1101,228Z" fill="#abb5dd" stroke="#abb5dd"/><path d="M1101,228L1096,308L1225,323Z" fill="#a6abda" stroke="#a6abda"/><path d="M1101,228L1225,323L1236,235Z" fill="#a9a9d8" stroke="#a9a9d8"/><path d="M1236,235L1225,323L1284,338Z" fill="#a49fd5" stroke="#a49fd5"/><path d="M1236,235L1284,338L1323,257Z" fill="#a79ed3" stroke="#a79ed3"/><path d="M1323,257L1284,338L1392,290Z" fill="#a497d0" stroke="#a497d0"/><path d="M1323,257L1392,290L1409,251Z" fill="#a795cd" stroke="#a795cd"/><path d="M1409,251L1392,290L1518,343Z" fill="#a38bc9" stroke="#a38bc9"/><path d="M1409,251L1518,343L1491,211Z" fill="#a68ac6" stroke="#a68ac6"/><path d="M1491,211L1518,343L1595,294Z" fill="#a381c2" stroke="#a381c2"/><path d="M1491,211L1595,294L1585,198Z" fill="#a984c1" stroke="#a984c1"/><path d="M1585,198L1595,294L1659,228Z" fill="#a87dbd" stroke="#a87dbd"/><path d="M1659,228L1595,294L1695,317Z" fill="#a275ba" stroke="#a275ba"/><path d="M1659,228L1695,317L1747,213Z" fill="#a575b7" stroke="#a575b7"/><path d="M1747,213L1695,317L1759,301Z" fill="#a273b5" stroke="#a273b5"/><path d="M1747,213L1759,301L1875,190Z" fill="#a777b1" stroke="#a777b1"/><path d="M1875,190L1759,301L1878,305Z" fill="#a274ae" stroke="#a274ae"/><path d="M1875,190L1878,305L1911,259Z" fill="#a376aa" stroke="#a376aa"/><path d="M1875,190L1911,259L2004,214Z" fill="#a778a8" stroke="#a778a8"/><path d="M1911,259L1878,305L1909,332Z" fill="#9d71aa" stroke="#9d71aa"/><path d="M1911,259L1909,332L2014,289Z" fill="#9d72a7" stroke="#9d72a7"/><path d="M1911,259L2014,289L2004,214Z" fill="#a275a4" stroke="#a275a4"/><path d="M-63,336L-77,563L-67,495Z" fill="#cfd9f6" stroke="#cfd9f6"/><path d="M-63,336L-67,495L-49,397Z" fill="#d3e1f9" stroke="#d3e1f9"/><path d="M-63,336L-49,397L12,372Z" fill="#d3e6fb" stroke="#d3e6fb"/><path d="M77,329L12,372L58,467Z" fill="#ccdef7" stroke="#ccdef7"/><path d="M77,329L58,467L164,382Z" fill="#c8daf5" stroke="#c8daf5"/><path d="M77,329L164,382L157,337Z" fill="#c9dff6" stroke="#c9dff6"/><path d="M157,337L164,382L210,347Z" fill="#c5dcf5" stroke="#c5dcf5"/><path d="M210,347L164,382L253,399Z" fill="#c1d7f2" stroke="#c1d7f2"/><path d="M210,347L253,399L332,307Z" fill="#bfd7f2" stroke="#bfd7f2"/><path d="M332,307L253,399L307,436Z" fill="#bbd1ef" stroke="#bbd1ef"/><path d="M332,307L307,436L382,346Z" fill="#b9d2ef" stroke="#b9d2ef"/><path d="M382,346L307,436L403,461Z" fill="#b4c9eb" stroke="#b4c9eb"/><path d="M382,346L403,461L427,433Z" fill="#b2c8eb" stroke="#b2c8eb"/><path d="M382,346L427,433L464,408Z" fill="#b3caec" stroke="#b3caec"/><path d="M382,346L464,408L517,295Z" fill="#b4cfee" stroke="#b4cfee"/><path d="M517,295L464,408L561,392Z" fill="#b0cbec" stroke="#b0cbec"/><path d="M517,295L561,392L561,295Z" fill="#b1cfee" stroke="#b1cfee"/><path d="M561,295L561,392L661,374Z" fill="#adcaeb" stroke="#adcaeb"/><path d="M561,295L661,374L700,336Z" fill="#accbeb" stroke="#accbeb"/><path d="M700,336L661,374L739,467Z" fill="#a6bfe6" stroke="#a6bfe6"/><path d="M700,336L739,467L793,399Z" fill="#a4bbe4" stroke="#a4bbe4"/><path d="M700,336L793,399L747,318Z" fill="#a8c2e7" stroke="#a8c2e7"/><path d="M747,318L793,399L877,292Z" fill="#a7c1e6" stroke="#a7c1e6"/><path d="M877,292L793,399L870,422Z" fill="#a3b9e3" stroke="#a3b9e3"/><path d="M877,292L870,422L947,433Z" fill="#a1b4e0" stroke="#a1b4e0"/><path d="M877,292L947,433L978,285Z" fill="#a3b9e2" stroke="#a3b9e2"/><path d="M978,285L947,433L1017,317Z" fill="#a2b4e0" stroke="#a2b4e0"/><path d="M1017,317L947,433L1024,422Z" fill="#9facdc" stroke="#9facdc"/><path d="M1017,317L1024,422L1096,308Z" fill="#a1addc" stroke="#a1addc"/><path d="M1096,308L1024,422L1146,394Z" fill="#9fa5d9" stroke="#9fa5d9"/><path d="M1096,308L1146,394L1225,323Z" fill="#a1a3d7" stroke="#a1a3d7"/><path d="M1225,323L1146,394L1210,394Z" fill="#9f9bd4" stroke="#9f9bd4"/><path d="M1225,323L1210,394L1284,338Z" fill="#a099d3" stroke="#a099d3"/><path d="M1284,338L1210,394L1321,385Z" fill="#9e93d0" stroke="#9e93d0"/><path d="M1284,338L1321,385L1392,290Z" fill="#a091ce" stroke="#a091ce"/><path d="M1392,290L1321,385L1415,412Z" fill="#9e89ca" stroke="#9e89ca"/><path d="M1392,290L1415,412L1518,343Z" fill="#9e84c6" stroke="#9e84c6"/><path d="M1518,343L1415,412L1478,415Z" fill="#9b7bc1" stroke="#9b7bc1"/><path d="M1518,343L1478,415L1550,399Z" fill="#9b76bf" stroke="#9b76bf"/><path d="M1518,343L1550,399L1595,294Z" fill="#9d78bf" stroke="#9d78bf"/><path d="M1595,294L1550,399L1650,406Z" fill="#9b70ba" stroke="#9b70ba"/><path d="M1595,294L1650,406L1695,317Z" fill="#9c6fb9" stroke="#9c6fb9"/><path d="M1695,317L1650,406L1746,423Z" fill="#9966b3" stroke="#9966b3"/><path d="M1695,317L1746,423L1759,301Z" fill="#9b6bb3" stroke="#9b6bb3"/><path d="M1759,301L1746,423L1825,438Z" fill="#9865ad" stroke="#9865ad"/><path d="M1759,301L1825,438L1878,305Z" fill="#9a6bac" stroke="#9a6bac"/><path d="M1878,305L1825,438L1909,332Z" fill="#9969a9" stroke="#9969a9"/><path d="M1909,332L1825,438L1949,413Z" fill="#9664a5" stroke="#9664a5"/><path d="M1909,332L1949,413L2034,381Z" fill="#9667a1" stroke="#9667a1"/><path d="M1909,332L2034,381L2014,289Z" fill="#996da2" stroke="#996da2"/><path d="M-49,397L-67,495L58,467Z" fill="#cdd9f5" stroke="#cdd9f5"/><path d="M-49,397L58,467L12,372Z" fill="#cdddf7" stroke="#cdddf7"/><path d="M164,382L58,467L116,484Z" fill="#c4d2f2" stroke="#c4d2f2"/><path d="M164,382L116,484L256,509Z" fill="#beccee" stroke="#beccee"/><path d="M164,382L256,509L253,399Z" fill="#bdceee" stroke="#bdceee"/><path d="M253,399L256,509L288,463Z" fill="#b8c8ec" stroke="#b8c8ec"/><path d="M253,399L288,463L307,436Z" fill="#b8caec" stroke="#b8caec"/><path d="M307,436L288,463L403,461Z" fill="#b4c5ea" stroke="#b4c5ea"/><path d="M427,433L403,461L521,489Z" fill="#adbfe7" stroke="#adbfe7"/><path d="M427,433L521,489L464,408Z" fill="#adc1e8" stroke="#adc1e8"/><path d="M464,408L521,489L561,392Z" fill="#acc2e8" stroke="#acc2e8"/><path d="M561,392L521,489L587,487Z" fill="#a8bce5" stroke="#a8bce5"/><path d="M561,392L587,487L661,374Z" fill="#a8c0e7" stroke="#a8c0e7"/><path d="M661,374L587,487L695,520Z" fill="#a3b8e4" stroke="#a3b8e4"/><path d="M661,374L695,520L739,467Z" fill="#a2b6e2" stroke="#a2b6e2"/><path d="M793,399L739,467L848,515Z" fill="#9fb0df" stroke="#9fb0df"/><path d="M793,399L848,515L870,422Z" fill="#9fafdf" stroke="#9fafdf"/><path d="M870,422L848,515L947,433Z" fill="#9cabdc" stroke="#9cabdc"/><path d="M947,433L848,515L974,490Z" fill="#9ba3d9" stroke="#9ba3d9"/><path d="M947,433L974,490L1024,422Z" fill="#9ba5d9" stroke="#9ba5d9"/><path d="M1024,422L974,490L1033,506Z" fill="#999ed6" stroke="#999ed6"/><path d="M1024,422L1033,506L1143,469Z" fill="#999ad4" stroke="#999ad4"/><path d="M1024,422L1143,469L1146,394Z" fill="#9b9cd5" stroke="#9b9cd5"/><path d="M1146,394L1143,469L1210,394Z" fill="#9b97d2" stroke="#9b97d2"/><path d="M1210,394L1143,469L1206,521Z" fill="#998fcf" stroke="#998fcf"/><path d="M1210,394L1206,521L1316,484Z" fill="#9888cb" stroke="#9888cb"/><path d="M1210,394L1316,484L1321,385Z" fill="#9b8bcd" stroke="#9b8bcd"/><path d="M1321,385L1316,484L1378,467Z" fill="#9981c7" stroke="#9981c7"/><path d="M1321,385L1378,467L1415,412Z" fill="#9a81c6" stroke="#9a81c6"/><path d="M1415,412L1378,467L1478,415Z" fill="#997ac2" stroke="#997ac2"/><path d="M1478,415L1378,467L1505,525Z" fill="#9671be" stroke="#9671be"/><path d="M1478,415L1505,525L1565,461Z" fill="#956bba" stroke="#956bba"/><path d="M1478,415L1565,461L1550,399Z" fill="#986fbb" stroke="#986fbb"/><path d="M1550,399L1565,461L1650,406Z" fill="#9769b8" stroke="#9769b8"/><path d="M1650,406L1565,461L1679,530Z" fill="#945eb2" stroke="#945eb2"/><path d="M1650,406L1679,530L1746,423Z" fill="#945caf" stroke="#945caf"/><path d="M1746,423L1679,530L1785,512Z" fill="#9254a9" stroke="#9254a9"/><path d="M1746,423L1785,512L1825,438Z" fill="#935ba8" stroke="#935ba8"/><path d="M1825,438L1785,512L1828,515Z" fill="#9154a3" stroke="#9154a3"/><path d="M1825,438L1828,515L1940,488Z" fill="#9156a1" stroke="#9156a1"/><path d="M1825,438L1940,488L1949,413Z" fill="#925da1" stroke="#925da1"/><path d="M1949,413L1940,488L2053,483Z" fill="#915a9b" stroke="#915a9b"/><path d="M1949,413L2053,483L2034,381Z" fill="#92609b" stroke="#92609b"/><path d="M-67,495L-77,563L37,618Z" fill="#cbc1ea" stroke="#cbc1ea"/><path d="M-67,495L37,618L58,467Z" fill="#c9c6ec" stroke="#c9c6ec"/><path d="M58,467L37,618L116,484Z" fill="#c4c4ea" stroke="#c4c4ea"/><path d="M116,484L37,618L163,617Z" fill="#c1b5e4" stroke="#c1b5e4"/><path d="M116,484L163,617L256,509Z" fill="#bcbae5" stroke="#bcbae5"/><path d="M256,509L163,617L235,615Z" fill="#b9addf" stroke="#b9addf"/><path d="M256,509L235,615L309,574Z" fill="#b6addf" stroke="#b6addf"/><path d="M256,509L309,574L288,463Z" fill="#b5b9e4" stroke="#b5b9e4"/><path d="M288,463L309,574L403,461Z" fill="#b2bae5" stroke="#b2bae5"/><path d="M403,461L309,574L433,590Z" fill="#afaedf" stroke="#afaedf"/><path d="M403,461L433,590L501,563Z" fill="#acadde" stroke="#acadde"/><path d="M403,461L501,563L521,489Z" fill="#abb4e2" stroke="#abb4e2"/><path d="M521,489L501,563L579,580Z" fill="#a7a8dc" stroke="#a7a8dc"/><path d="M521,489L579,580L587,487Z" fill="#a6aede" stroke="#a6aede"/><path d="M587,487L579,580L695,520Z" fill="#a3a9dc" stroke="#a3a9dc"/><path d="M695,520L579,580L707,579Z" fill="#a1a0d8" stroke="#a1a0d8"/><path d="M695,520L707,579L739,467Z" fill="#a0a5da" stroke="#a0a5da"/><path d="M739,467L707,579L848,515Z" fill="#9ea3d9" stroke="#9ea3d9"/><path d="M848,515L707,579L783,618Z" fill="#9d95d2" stroke="#9d95d2"/><path d="M848,515L783,618L854,569Z" fill="#9c94d1" stroke="#9c94d1"/><path d="M848,515L854,569L949,588Z" fill="#9a93d1" stroke="#9a93d1"/><path d="M848,515L949,588L974,490Z" fill="#9a97d3" stroke="#9a97d3"/><path d="M974,490L949,588L1014,573Z" fill="#988ece" stroke="#988ece"/><path d="M974,490L1014,573L1033,506Z" fill="#9892d0" stroke="#9892d0"/><path d="M1033,506L1014,573L1139,578Z" fill="#9885ca" stroke="#9885ca"/><path d="M1033,506L1139,578L1143,469Z" fill="#9889cc" stroke="#9889cc"/><path d="M1143,469L1139,578L1206,521Z" fill="#9782c9" stroke="#9782c9"/><path d="M1206,521L1139,578L1243,605Z" fill="#9774c2" stroke="#9774c2"/><path d="M1206,521L1243,605L1295,552Z" fill="#9671c0" stroke="#9671c0"/><path d="M1206,521L1295,552L1316,484Z" fill="#9779c4" stroke="#9779c4"/><path d="M1316,484L1295,552L1395,593Z" fill="#966cbd" stroke="#966cbd"/><path d="M1316,484L1395,593L1378,467Z" fill="#9670be" stroke="#9670be"/><path d="M1378,467L1395,593L1505,525Z" fill="#9565b8" stroke="#9565b8"/><path d="M1505,525L1395,593L1479,586Z" fill="#9457b2" stroke="#9457b2"/><path d="M1505,525L1479,586L1555,616Z" fill="#9350ad" stroke="#9350ad"/><path d="M1505,525L1555,616L1642,595Z" fill="#9349a9" stroke="#9349a9"/><path d="M1505,525L1642,595L1565,461Z" fill="#9456af" stroke="#9456af"/><path d="M1565,461L1642,595L1679,530Z" fill="#934fab" stroke="#934fab"/><path d="M1679,530L1642,595L1782,612Z" fill="#913ea0" stroke="#913ea0"/><path d="M1679,530L1782,612L1785,512Z" fill="#9145a0" stroke="#9145a0"/><path d="M1785,512L1782,612L1832,595Z" fill="#913f9a" stroke="#913f9a"/><path d="M1785,512L1832,595L1828,515Z" fill="#91479d" stroke="#91479d"/><path d="M1828,515L1832,595L1903,567Z" fill="#904398" stroke="#904398"/><path d="M1828,515L1903,567L1940,488Z" fill="#904c9a" stroke="#904c9a"/><path d="M1940,488L1903,567L2007,596Z" fill="#8f4593" stroke="#8f4593"/><path d="M1940,488L2007,596L2053,483Z" fill="#8f4c93" stroke="#8f4c93"/><path d="M2053,483L2007,596L2029,641Z" fill="#8e3f8a" stroke="#8e3f8a"/><path d="M2053,483L2029,641L2028,766Z" fill="#8d3183" stroke="#8d3183"/><path d="M2053,483L2028,766L2047,1022Z" fill="#89166e" stroke="#89166e"/><path d="M-77,563L-74,944L-50,752Z" fill="#c996ce" stroke="#c996ce"/><path d="M-77,563L-50,752L-29,703Z" fill="#caa7da" stroke="#caa7da"/><path d="M-77,563L-29,703L37,618Z" fill="#c9afe1" stroke="#c9afe1"/><path d="M37,618L-29,703L47,666Z" fill="#c5a5da" stroke="#c5a5da"/><path d="M37,618L47,666L163,617Z" fill="#c1a8dd" stroke="#c1a8dd"/><path d="M163,617L47,666L137,685Z" fill="#bea1d8" stroke="#bea1d8"/><path d="M163,617L137,685L223,667Z" fill="#ba9ed6" stroke="#ba9ed6"/><path d="M163,617L223,667L235,615Z" fill="#b8a1d8" stroke="#b8a1d8"/><path d="M235,615L223,667L295,640Z" fill="#b59dd6" stroke="#b59dd6"/><path d="M235,615L295,640L309,574Z" fill="#b4a2da" stroke="#b4a2da"/><path d="M309,574L295,640L422,662Z" fill="#b09bd6" stroke="#b09bd6"/><path d="M309,574L422,662L433,590Z" fill="#ad9dd7" stroke="#ad9dd7"/><path d="M433,590L422,662L530,666Z" fill="#a994d1" stroke="#a994d1"/><path d="M433,590L530,666L501,563Z" fill="#a89ad6" stroke="#a89ad6"/><path d="M501,563L530,666L560,652Z" fill="#a694d2" stroke="#a694d2"/><path d="M501,563L560,652L579,580Z" fill="#a69ad5" stroke="#a69ad5"/><path d="M579,580L560,652L647,673Z" fill="#a290d0" stroke="#a290d0"/><path d="M579,580L647,673L707,579Z" fill="#a093d2" stroke="#a093d2"/><path d="M707,579L647,673L789,643Z" fill="#9e8bcd" stroke="#9e8bcd"/><path d="M707,579L789,643L783,618Z" fill="#9d8cce" stroke="#9d8cce"/><path d="M783,618L789,643L854,569Z" fill="#9c8acd" stroke="#9c8acd"/><path d="M854,569L789,643L920,663Z" fill="#9a84ca" stroke="#9a84ca"/><path d="M854,569L920,663L949,588Z" fill="#9985ca" stroke="#9985ca"/><path d="M949,588L920,663L1028,667Z" fill="#977ac3" stroke="#977ac3"/><path d="M949,588L1028,667L1014,573Z" fill="#977ec6" stroke="#977ec6"/><path d="M1014,573L1028,667L1107,643Z" fill="#9774c1" stroke="#9774c1"/><path d="M1014,573L1107,643L1139,578Z" fill="#9778c4" stroke="#9778c4"/><path d="M1139,578L1107,643L1243,605Z" fill="#966dbe" stroke="#966dbe"/><path d="M1243,605L1107,643L1249,661Z" fill="#9563b9" stroke="#9563b9"/><path d="M1243,605L1249,661L1323,698Z" fill="#9458b2" stroke="#9458b2"/><path d="M1243,605L1323,698L1295,552Z" fill="#955eb7" stroke="#955eb7"/><path d="M1295,552L1323,698L1395,593Z" fill="#9559b4" stroke="#9559b4"/><path d="M1395,593L1323,698L1412,644Z" fill="#944fad" stroke="#944fad"/><path d="M1395,593L1412,644L1479,586Z" fill="#9451af" stroke="#9451af"/><path d="M1479,586L1412,644L1502,648Z" fill="#9349aa" stroke="#9349aa"/><path d="M1479,586L1502,648L1555,616Z" fill="#9346a8" stroke="#9346a8"/><path d="M1555,616L1502,648L1549,702Z" fill="#913aa1" stroke="#913aa1"/><path d="M1555,616L1549,702L1657,682Z" fill="#91329b" stroke="#91329b"/><path d="M1555,616L1657,682L1642,595Z" fill="#92379f" stroke="#92379f"/><path d="M1642,595L1657,682L1747,692Z" fill="#902c97" stroke="#902c97"/><path d="M1642,595L1747,692L1782,612Z" fill="#903197" stroke="#903197"/><path d="M1782,612L1747,692L1835,681Z" fill="#8f2b8f" stroke="#8f2b8f"/><path d="M1782,612L1835,681L1832,595Z" fill="#8f3292" stroke="#8f3292"/><path d="M1832,595L1835,681L1923,647Z" fill="#8e2f8d" stroke="#8e2f8d"/><path d="M1832,595L1923,647L1903,567Z" fill="#8f3891" stroke="#8f3891"/><path d="M1903,567L1923,647L2007,596Z" fill="#8e388d" stroke="#8e388d"/><path d="M2007,596L1923,647L2029,641Z" fill="#8e3287" stroke="#8e3287"/><path d="M-29,703L-50,752L21,789Z" fill="#c695cd" stroke="#c695cd"/><path d="M-29,703L21,789L47,666Z" fill="#c499d1" stroke="#c499d1"/><path d="M47,666L21,789L110,747Z" fill="#c093cd" stroke="#c093cd"/><path d="M47,666L110,747L137,685Z" fill="#bf99d1" stroke="#bf99d1"/><path d="M137,685L110,747L255,771Z" fill="#b98dc9" stroke="#b98dc9"/><path d="M137,685L255,771L223,667Z" fill="#b791cd" stroke="#b791cd"/><path d="M223,667L255,771L295,640Z" fill="#b391cd" stroke="#b391cd"/><path d="M295,640L255,771L289,788Z" fill="#b187c6" stroke="#b187c6"/><path d="M295,640L289,788L422,662Z" fill="#ae8cca" stroke="#ae8cca"/><path d="M422,662L289,788L431,770Z" fill="#ab81c2" stroke="#ab81c2"/><path d="M422,662L431,770L488,746Z" fill="#a882c3" stroke="#a882c3"/><path d="M422,662L488,746L530,666Z" fill="#a788c8" stroke="#a788c8"/><path d="M530,666L488,746L590,759Z" fill="#a37fc2" stroke="#a37fc2"/><path d="M530,666L590,759L560,652Z" fill="#a285c7" stroke="#a285c7"/><path d="M560,652L590,759L647,673Z" fill="#a083c6" stroke="#a083c6"/><path d="M647,673L590,759L697,742Z" fill="#9e7ac0" stroke="#9e7ac0"/><path d="M647,673L697,742L789,643Z" fill="#9d7fc4" stroke="#9d7fc4"/><path d="M789,643L697,742L734,771Z" fill="#9b76be" stroke="#9b76be"/><path d="M789,643L734,771L836,707Z" fill="#9a76be" stroke="#9a76be"/><path d="M789,643L836,707L920,663Z" fill="#997ac2" stroke="#997ac2"/><path d="M836,707L734,771L856,777Z" fill="#986bb6" stroke="#986bb6"/><path d="M836,707L856,777L956,731Z" fill="#966ab6" stroke="#966ab6"/><path d="M836,707L956,731L920,663Z" fill="#9771bc" stroke="#9771bc"/><path d="M920,663L956,731L1028,667Z" fill="#966fbb" stroke="#966fbb"/><path d="M1028,667L956,731L1014,749Z" fill="#9566b5" stroke="#9566b5"/><path d="M1028,667L1014,749L1123,764Z" fill="#945eb1" stroke="#945eb1"/><path d="M1028,667L1123,764L1107,643Z" fill="#9463b5" stroke="#9463b5"/><path d="M1107,643L1123,764L1224,749Z" fill="#9456ad" stroke="#9456ad"/><path d="M1107,643L1224,749L1249,661Z" fill="#9459b1" stroke="#9459b1"/><path d="M1249,661L1224,749L1297,741Z" fill="#934ca9" stroke="#934ca9"/><path d="M1249,661L1297,741L1323,698Z" fill="#934caa" stroke="#934caa"/><path d="M1323,698L1297,741L1387,790Z" fill="#923ea0" stroke="#923ea0"/><path d="M1323,698L1387,790L1412,644Z" fill="#9240a2" stroke="#9240a2"/><path d="M1412,644L1387,790L1454,772Z" fill="#91369c" stroke="#91369c"/><path d="M1412,644L1454,772L1502,648Z" fill="#923ca0" stroke="#923ca0"/><path d="M1502,648L1454,772L1549,702Z" fill="#91339a" stroke="#91339a"/><path d="M1549,702L1454,772L1541,747Z" fill="#902b94" stroke="#902b94"/><path d="M1549,702L1541,747L1652,741Z" fill="#8f2591" stroke="#8f2591"/><path d="M1549,702L1652,741L1657,682Z" fill="#902692" stroke="#902692"/><path d="M1657,682L1652,741L1747,692Z" fill="#8f218f" stroke="#8f218f"/><path d="M1747,692L1652,741L1754,788Z" fill="#8d1a86" stroke="#8d1a86"/><path d="M1747,692L1754,788L1850,763Z" fill="#8c1881" stroke="#8c1881"/><path d="M1747,692L1850,763L1835,681Z" fill="#8d2085" stroke="#8d2085"/><path d="M1835,681L1850,763L1923,647Z" fill="#8d2383" stroke="#8d2383"/><path d="M1923,647L1850,763L1940,774Z" fill="#8c1c7c" stroke="#8c1c7c"/><path d="M1923,647L1940,774L2028,766Z" fill="#8b1c78" stroke="#8b1c78"/><path d="M1923,647L2028,766L2029,641Z" fill="#8c267d" stroke="#8c267d"/><path d="M-50,752L-74,944L-22,889Z" fill="#c57fbb" stroke="#c57fbb"/><path d="M-50,752L-22,889L21,789Z" fill="#c488c3" stroke="#c488c3"/><path d="M21,789L-22,889L64,865Z" fill="#c07dbc" stroke="#c07dbc"/><path d="M21,789L64,865L110,747Z" fill="#bf85c2" stroke="#bf85c2"/><path d="M110,747L64,865L119,881Z" fill="#bb7dbc" stroke="#bb7dbc"/><path d="M110,747L119,881L248,859Z" fill="#b779ba" stroke="#b779ba"/><path d="M110,747L248,859L255,771Z" fill="#b57ebf" stroke="#b57ebf"/><path d="M255,771L248,859L281,829Z" fill="#b075b8" stroke="#b075b8"/><path d="M255,771L281,829L289,788Z" fill="#af7abc" stroke="#af7abc"/><path d="M289,788L281,829L431,770Z" fill="#ac77ba" stroke="#ac77ba"/><path d="M431,770L281,829L423,889Z" fill="#a86eb4" stroke="#a86eb4"/><path d="M431,770L423,889L524,829Z" fill="#a46bb2" stroke="#a46bb2"/><path d="M431,770L524,829L488,746Z" fill="#a474b9" stroke="#a474b9"/><path d="M488,746L524,829L590,759Z" fill="#a273b9" stroke="#a273b9"/><path d="M590,759L524,829L620,854Z" fill="#9e6ab2" stroke="#9e6ab2"/><path d="M590,759L620,854L697,742Z" fill="#9c6eb6" stroke="#9c6eb6"/><path d="M697,742L620,854L734,771Z" fill="#9b6bb4" stroke="#9b6bb4"/><path d="M734,771L620,854L678,889Z" fill="#9a61ac" stroke="#9a61ac"/><path d="M734,771L678,889L770,853Z" fill="#985eab" stroke="#985eab"/><path d="M734,771L770,853L848,826Z" fill="#975fac" stroke="#975fac"/><path d="M734,771L848,826L856,777Z" fill="#9762af" stroke="#9762af"/><path d="M856,777L848,826L919,854Z" fill="#9559a9" stroke="#9559a9"/><path d="M856,777L919,854L956,731Z" fill="#945dad" stroke="#945dad"/><path d="M956,731L919,854L1014,749Z" fill="#935cad" stroke="#935cad"/><path d="M1014,749L919,854L1021,881Z" fill="#924fa4" stroke="#924fa4"/><path d="M1014,749L1021,881L1123,764Z" fill="#924fa5" stroke="#924fa5"/><path d="M1123,764L1021,881L1103,886Z" fill="#91429c" stroke="#91429c"/><path d="M1123,764L1103,886L1244,828Z" fill="#913f9c" stroke="#913f9c"/><path d="M1123,764L1244,828L1224,749Z" fill="#9244a1" stroke="#9244a1"/><path d="M1224,749L1244,828L1297,741Z" fill="#91409f" stroke="#91409f"/><path d="M1297,741L1244,828L1338,826Z" fill="#913799" stroke="#913799"/><path d="M1297,741L1338,826L1387,790Z" fill="#913498" stroke="#913498"/><path d="M1387,790L1338,826L1365,825Z" fill="#8f2c92" stroke="#8f2c92"/><path d="M1387,790L1365,825L1471,831Z" fill="#8f268f" stroke="#8f268f"/><path d="M1387,790L1471,831L1454,772Z" fill="#8f2790" stroke="#8f2790"/><path d="M1454,772L1471,831L1541,747Z" fill="#8f248f" stroke="#8f248f"/><path d="M1541,747L1471,831L1568,873Z" fill="#8e1987" stroke="#8e1987"/><path d="M1541,747L1568,873L1652,741Z" fill="#8d1988" stroke="#8d1988"/><path d="M1652,741L1568,873L1673,869Z" fill="#8c0b7e" stroke="#8c0b7e"/><path d="M1652,741L1673,869L1754,788Z" fill="#8c0d7f" stroke="#8c0d7f"/><path d="M1754,788L1673,869L1755,854Z" fill="#8b0576" stroke="#8b0576"/><path d="M1754,788L1755,854L1850,763Z" fill="#8b0c78" stroke="#8b0c78"/><path d="M1850,763L1755,854L1833,890Z" fill="#8a0570" stroke="#8a0570"/><path d="M1850,763L1833,890L1916,869Z" fill="#89046c" stroke="#89046c"/><path d="M1850,763L1916,869L1940,774Z" fill="#8a0c70" stroke="#8a0c70"/><path d="M1940,774L1916,869L2013,878Z" fill="#880466" stroke="#880466"/><path d="M1940,774L2013,878L2028,766Z" fill="#880b69" stroke="#880b69"/><path d="M2028,766L2013,878L2047,1022Z" fill="#860059" stroke="#860059"/><path d="M-22,889L-74,944L49,934Z" fill="#c17db0" stroke="#c17db0"/><path d="M-22,889L49,934L64,865Z" fill="#bf7ab3" stroke="#bf7ab3"/><path d="M64,865L49,934L119,881Z" fill="#bb78b2" stroke="#bb78b2"/><path d="M119,881L49,934L169,916Z" fill="#b876ae" stroke="#b876ae"/><path d="M119,881L169,916L248,859Z" fill="#b472b0" stroke="#b472b0"/><path d="M248,859L169,916L230,915Z" fill="#b170ad" stroke="#b170ad"/><path d="M248,859L230,915L340,933Z" fill="#ad6caa" stroke="#ad6caa"/><path d="M248,859L340,933L281,829Z" fill="#ac6cae" stroke="#ac6cae"/><path d="M281,829L340,933L371,919Z" fill="#a969aa" stroke="#a969aa"/><path d="M281,829L371,919L423,889Z" fill="#a868ac" stroke="#a868ac"/><path d="M423,889L371,919L483,955Z" fill="#a466a4" stroke="#a466a4"/><path d="M423,889L483,955L524,829Z" fill="#a264a7" stroke="#a264a7"/><path d="M524,829L483,955L601,917Z" fill="#9f62a5" stroke="#9f62a5"/><path d="M524,829L601,917L620,854Z" fill="#9d60a9" stroke="#9d60a9"/><path d="M620,854L601,917L678,889Z" fill="#9a5fa5" stroke="#9a5fa5"/><path d="M678,889L601,917L666,925Z" fill="#995ea1" stroke="#995ea1"/><path d="M678,889L666,925L773,927Z" fill="#975a9f" stroke="#975a9f"/><path d="M678,889L773,927L770,853Z" fill="#9658a2" stroke="#9658a2"/><path d="M770,853L773,927L848,826Z" fill="#9555a3" stroke="#9555a3"/><path d="M848,826L773,927L826,973Z" fill="#94549c" stroke="#94549c"/><path d="M848,826L826,973L912,954Z" fill="#935199" stroke="#935199"/><path d="M848,826L912,954L919,854Z" fill="#934f9f" stroke="#934f9f"/><path d="M919,854L912,954L1021,881Z" fill="#914c9a" stroke="#914c9a"/><path d="M1021,881L912,954L977,1004Z" fill="#8f4a91" stroke="#8f4a91"/><path d="M1021,881L977,1004L1063,912Z" fill="#8f4591" stroke="#8f4591"/><path d="M1021,881L1063,912L1103,886Z" fill="#904195" stroke="#904195"/><path d="M1103,886L1063,912L1132,937Z" fill="#8f3d91" stroke="#8f3d91"/><path d="M1103,886L1132,937L1197,948Z" fill="#8e398c" stroke="#8e398c"/><path d="M1103,886L1197,948L1244,828Z" fill="#8f3591" stroke="#8f3591"/><path d="M1244,828L1197,948L1305,952Z" fill="#8e2e89" stroke="#8e2e89"/><path d="M1244,828L1305,952L1338,826Z" fill="#8f2a8e" stroke="#8f2a8e"/><path d="M1338,826L1305,952L1378,946Z" fill="#8d2584" stroke="#8d2584"/><path d="M1338,826L1378,946L1365,825Z" fill="#8e228a" stroke="#8e228a"/><path d="M1365,825L1378,946L1471,831Z" fill="#8d1d86" stroke="#8d1d86"/><path d="M1471,831L1378,946L1495,928Z" fill="#8c197e" stroke="#8c197e"/><path d="M1471,831L1495,928L1568,873Z" fill="#8c127e" stroke="#8c127e"/><path d="M1568,873L1495,928L1584,927Z" fill="#8b0d76" stroke="#8b0d76"/><path d="M1568,873L1584,927L1673,869Z" fill="#8b0775" stroke="#8b0775"/><path d="M1673,869L1584,927L1687,921Z" fill="#8a0270" stroke="#8a0270"/><path d="M1673,869L1687,921L1755,854Z" fill="#8a0070" stroke="#8a0070"/><path d="M1755,854L1687,921L1776,972Z" fill="#890068" stroke="#890068"/><path d="M1755,854L1776,972L1833,890Z" fill="#880067" stroke="#880067"/><path d="M1833,890L1776,972L1839,974Z" fill="#87005e" stroke="#87005e"/><path d="M1833,890L1839,974L1906,926Z" fill="#87005e" stroke="#87005e"/><path d="M1833,890L1906,926L1916,869Z" fill="#880062" stroke="#880062"/><path d="M1916,869L1906,926L1992,926Z" fill="#87005c" stroke="#87005c"/><path d="M1916,869L1992,926L2013,878Z" fill="#87005c" stroke="#87005c"/><path d="M2013,878L1992,926L2047,1022Z" fill="#850051" stroke="#850051"/><path d="M-74,944L-71,1010L26,1023Z" fill="#c17fa6" stroke="#c17fa6"/><path d="M-74,944L26,1023L49,934Z" fill="#bf7ca9" stroke="#bf7ca9"/><path d="M49,934L26,1023L113,1012Z" fill="#ba79a3" stroke="#ba79a3"/><path d="M49,934L113,1012L169,916Z" fill="#b776a7" stroke="#b776a7"/><path d="M169,916L113,1012L215,1001Z" fill="#b373a1" stroke="#b373a1"/><path d="M169,916L215,1001L230,915Z" fill="#b170a6" stroke="#b170a6"/><path d="M230,915L215,1001L340,933Z" fill="#ac6da3" stroke="#ac6da3"/><path d="M340,933L215,1001L301,1068Z" fill="#a96c99" stroke="#a96c99"/><path d="M340,933L301,1068L374,1019Z" fill="#a66997" stroke="#a66997"/><path d="M340,933L374,1019L371,919Z" fill="#a6689f" stroke="#a6689f"/><path d="M371,919L374,1019L483,955Z" fill="#a3679d" stroke="#a3679d"/><path d="M483,955L374,1019L524,1059Z" fill="#a06594" stroke="#a06594"/><path d="M483,955L524,1059L585,1041Z" fill="#9c6292" stroke="#9c6292"/><path d="M483,955L585,1041L601,917Z" fill="#9c6199" stroke="#9c6199"/><path d="M601,917L585,1041L666,925Z" fill="#995f99" stroke="#995f99"/><path d="M666,925L585,1041L695,1005Z" fill="#975e94" stroke="#975e94"/><path d="M666,925L695,1005L773,927Z" fill="#965a98" stroke="#965a98"/><path d="M773,927L695,1005L826,973Z" fill="#945794" stroke="#945794"/><path d="M826,973L695,1005L760,1064Z" fill="#93578c" stroke="#93578c"/><path d="M826,973L760,1064L868,1021Z" fill="#91548a" stroke="#91548a"/><path d="M826,973L868,1021L912,954Z" fill="#90518e" stroke="#90518e"/><path d="M912,954L868,1021L977,1004Z" fill="#8f4e8b" stroke="#8f4e8b"/><path d="M1063,912L977,1004L1095,1041Z" fill="#8d4387" stroke="#8d4387"/><path d="M1063,912L1095,1041L1132,937Z" fill="#8d3e88" stroke="#8d3e88"/><path d="M1132,937L1095,1041L1197,948Z" fill="#8d3984" stroke="#8d3984"/><path d="M1197,948L1095,1041L1233,1059Z" fill="#8c367b" stroke="#8c367b"/><path d="M1197,948L1233,1059L1285,1051Z" fill="#8c2f78" stroke="#8c2f78"/><path d="M1197,948L1285,1051L1305,952Z" fill="#8c2d7d" stroke="#8c2d7d"/><path d="M1305,952L1285,1051L1416,1016Z" fill="#8b2575" stroke="#8b2575"/><path d="M1305,952L1416,1016L1378,946Z" fill="#8b2278" stroke="#8b2278"/><path d="M1378,946L1416,1016L1495,928Z" fill="#8b1b75" stroke="#8b1b75"/><path d="M1495,928L1416,1016L1483,1014Z" fill="#8a176f" stroke="#8a176f"/><path d="M1495,928L1483,1014L1559,1033Z" fill="#89116b" stroke="#89116b"/><path d="M1495,928L1559,1033L1584,927Z" fill="#890e6d" stroke="#890e6d"/><path d="M1584,927L1559,1033L1686,1003Z" fill="#880765" stroke="#880765"/><path d="M1584,927L1686,1003L1687,921Z" fill="#890268" stroke="#890268"/><path d="M1687,921L1686,1003L1776,972Z" fill="#870061" stroke="#870061"/><path d="M1776,972L1686,1003L1759,1007Z" fill="#87005b" stroke="#87005b"/><path d="M1776,972L1759,1007L1813,1020Z" fill="#860057" stroke="#860057"/><path d="M1776,972L1813,1020L1839,974Z" fill="#860057" stroke="#860057"/><path d="M1839,974L1813,1020L1912,1021Z" fill="#850052" stroke="#850052"/><path d="M1839,974L1912,1021L1906,926Z" fill="#860055" stroke="#860055"/><path d="M1906,926L1912,1021L1992,926Z" fill="#860054" stroke="#860054"/><path d="M1992,926L1912,1021L2047,1022Z" fill="#84004b" stroke="#84004b"/><path d="M-71,1010L301,1068L26,1023Z" fill="#b7779b" stroke="#b7779b"/><path d="M26,1023L301,1068L113,1012Z" fill="#b37498" stroke="#b37498"/><path d="M113,1012L301,1068L215,1001Z" fill="#ae7098" stroke="#ae7098"/><path d="M301,1068L760,1064L524,1059Z" fill="#9b628a" stroke="#9b628a"/><path d="M301,1068L524,1059L374,1019Z" fill="#a2678f" stroke="#a2678f"/><path d="M524,1059L760,1064L585,1041Z" fill="#965f8a" stroke="#965f8a"/><path d="M585,1041L760,1064L695,1005Z" fill="#955c8c" stroke="#955c8c"/><path d="M760,1064L1233,1059L1004,1053Z" fill="#8c477d" stroke="#8c477d"/><path d="M760,1064L1004,1053L868,1021Z" fill="#8f5084" stroke="#8f5084"/><path d="M868,1021L1004,1053L977,1004Z" fill="#8d4c85" stroke="#8d4c85"/><path d="M977,1004L1004,1053L1095,1041Z" fill="#8c4580" stroke="#8c4580"/><path d="M1004,1053L1233,1059L1095,1041Z" fill="#8b3c79" stroke="#8b3c79"/><path d="M1233,1059L2047,1022L1559,1033Z" fill="#87065c" stroke="#87065c"/><path d="M1233,1059L1559,1033L1285,1051Z" fill="#89226c" stroke="#89226c"/><path d="M1285,1051L1559,1033L1416,1016Z" fill="#891c6a" stroke="#891c6a"/><path d="M1416,1016L1559,1033L1483,1014Z" fill="#881468" stroke="#881468"/><path d="M1559,1033L2047,1022L1912,1021Z" fill="#85004f" stroke="#85004f"/><path d="M1559,1033L1912,1021L1813,1020Z" fill="#850055" stroke="#850055"/><path d="M1559,1033L1813,1020L1686,1003Z" fill="#87005b" stroke="#87005b"/><path d="M1686,1003L1813,1020L1759,1007Z" fill="#860057" stroke="#860057"/></g><filter id="noise"><feTurbulence type="fractalNoise" in="fillPaint" fill="#F00" baseFrequency="0.7" numOctaves="3" stitchTiles="stitch"/><feComponentTransfer><feFuncR type="linear" slope="2" intercept="-.5"/><feFuncG type="linear" slope="2" intercept="-.5"/><feFuncB type="linear" slope="2" intercept="-.5"/></feComponentTransfer><feColorMatrix type="matrix" values="0.3333 0.3333 0.3333 0 0 
 0.3333 0.3333 0.3333 0 0 
 0.3333 0.3333 0.3333 0 0 
 0 0 0 1 0"/></filter><rect opacity="0.2" width="100%" height="100%" filter="url(#noise)"/></svg>