<svg width="1920" height="975" xmlns="http://www.w3.org/2000/svg"><g><path d="M-94,-104L-111,184L-45,30Z" fill="#ffffff" stroke="#ffffff"/><path d="M-94,-104L-45,30L50,-134Z" fill="#fdffff" stroke="#fdffff"/><path d="M50,-134L-45,30L52,115Z" fill="#fafdfe" stroke="#fafdfe"/><path d="M50,-134L52,115L195,-74Z" fill="#f6fafc" stroke="#f6fafc"/><path d="M50,-134L195,-74L522,-115Z" fill="#ecf3f8" stroke="#ecf3f8"/><path d="M50,-134L522,-115L622,-125Z" fill="#e1ebf4" stroke="#e1ebf4"/><path d="M50,-134L622,-125L1014,-132Z" fill="#d5e2ef" stroke="#d5e2ef"/><path d="M195,-74L52,115L269,84Z" fill="#f2f7fb" stroke="#f2f7fb"/><path d="M195,-74L269,84L369,-61Z" fill="#ebf2f8" stroke="#ebf2f8"/><path d="M195,-74L369,-61L522,-115Z" fill="#e4edf5" stroke="#e4edf5"/><path d="M369,-61L269,84L413,53Z" fill="#e5eef5" stroke="#e5eef5"/><path d="M369,-61L413,53L471,45Z" fill="#e0eaf3" stroke="#e0eaf3"/><path d="M369,-61L471,45L522,-115Z" fill="#dde8f2" stroke="#dde8f2"/><path d="M522,-115L471,45L622,-125Z" fill="#d7e3f0" stroke="#d7e3f0"/><path d="M622,-125L471,45L635,121Z" fill="#d4e1ef" stroke="#d4e1ef"/><path d="M622,-125L635,121L777,40Z" fill="#cddaeb" stroke="#cddaeb"/><path d="M622,-125L777,40L779,-62Z" fill="#cbd6e9" stroke="#cbd6e9"/><path d="M622,-125L779,-62L1014,-132Z" fill="#c8cfe5" stroke="#c8cfe5"/><path d="M779,-62L777,40L940,87Z" fill="#c7cde4" stroke="#c7cde4"/><path d="M779,-62L940,87L1014,-132Z" fill="#c6c5e0" stroke="#c6c5e0"/><path d="M1014,-132L940,87L1091,-91Z" fill="#c6badb" stroke="#c6badb"/><path d="M1014,-132L1091,-91L1398,-129Z" fill="#c5abd4" stroke="#c5abd4"/><path d="M1091,-91L940,87L1112,84Z" fill="#c6b7d9" stroke="#c6b7d9"/><path d="M1091,-91L1112,84L1267,-67Z" fill="#c5acd4" stroke="#c5acd4"/><path d="M1091,-91L1267,-67L1398,-129Z" fill="#c4a3d0" stroke="#c4a3d0"/><path d="M1267,-67L1112,84L1317,31Z" fill="#c4a5d1" stroke="#c4a5d1"/><path d="M1267,-67L1317,31L1398,-129Z" fill="#c39bcb" stroke="#c39bcb"/><path d="M1398,-129L1317,31L1475,86Z" fill="#c293c5" stroke="#c293c5"/><path d="M1398,-129L1475,86L1550,-85Z" fill="#c189bf" stroke="#c189bf"/><path d="M1398,-129L1550,-85L1688,-85Z" fill="#ba85b8" stroke="#ba85b8"/><path d="M1398,-129L1688,-85L1982,-103Z" fill="#a880a7" stroke="#a880a7"/><path d="M1550,-85L1475,86L1545,101Z" fill="#bd86ba" stroke="#bd86ba"/><path d="M1550,-85L1545,101L1672,79Z" fill="#b584b3" stroke="#b584b3"/><path d="M1550,-85L1672,79L1688,-85Z" fill="#af82ad" stroke="#af82ad"/><path d="M1688,-85L1672,79L1821,-48Z" fill="#a480a3" stroke="#a480a3"/><path d="M1688,-85L1821,-48L1982,-103Z" fill="#978097" stroke="#978097"/><path d="M1821,-48L1672,79L1877,79Z" fill="#9c809c" stroke="#9c809c"/><path d="M1821,-48L1877,79L1982,-103Z" fill="#908090" stroke="#908090"/><path d="M1982,-103L1877,79L2037,44Z" fill="#878088" stroke="#878088"/><path d="M-45,30L-111,184L52,115Z" fill="#fdffff" stroke="#fdffff"/><path d="M52,115L-111,184L49,241Z" fill="#f2fdfe" stroke="#f2fdfe"/><path d="M52,115L49,241L167,255Z" fill="#eaf9fc" stroke="#eaf9fc"/><path d="M52,115L167,255L269,84Z" fill="#edf7fb" stroke="#edf7fb"/><path d="M269,84L167,255L373,279Z" fill="#dff1f8" stroke="#dff1f8"/><path d="M269,84L373,279L413,53Z" fill="#e1edf5" stroke="#e1edf5"/><path d="M413,53L373,279L531,202Z" fill="#d6e8f2" stroke="#d6e8f2"/><path d="M413,53L531,202L471,45Z" fill="#dce7f1" stroke="#dce7f1"/><path d="M471,45L531,202L635,121Z" fill="#d4e3ef" stroke="#d4e3ef"/><path d="M635,121L531,202L622,206Z" fill="#cadfee" stroke="#cadfee"/><path d="M635,121L622,206L783,270Z" fill="#c2d9eb" stroke="#c2d9eb"/><path d="M635,121L783,270L777,40Z" fill="#c6d5e8" stroke="#c6d5e8"/><path d="M777,40L783,270L940,87Z" fill="#c4cce4" stroke="#c4cce4"/><path d="M940,87L783,270L963,176Z" fill="#bdc6e1" stroke="#bdc6e1"/><path d="M940,87L963,176L1112,84Z" fill="#c5bbdb" stroke="#c5bbdb"/><path d="M1112,84L963,176L1184,249Z" fill="#beb2d7" stroke="#beb2d7"/><path d="M1112,84L1184,249L1317,31Z" fill="#c3a8d2" stroke="#c3a8d2"/><path d="M1317,31L1184,249L1315,233Z" fill="#bca0cf" stroke="#bca0cf"/><path d="M1317,31L1315,233L1475,86Z" fill="#c196c7" stroke="#c196c7"/><path d="M1475,86L1315,233L1387,278Z" fill="#b692c6" stroke="#b692c6"/><path d="M1475,86L1387,278L1521,218Z" fill="#b68ac0" stroke="#b68ac0"/><path d="M1475,86L1521,218L1545,101Z" fill="#ba86bb" stroke="#ba86bb"/><path d="M1545,101L1521,218L1672,79Z" fill="#b384b4" stroke="#b384b4"/><path d="M1672,79L1521,218L1722,250Z" fill="#a681ad" stroke="#a681ad"/><path d="M1672,79L1722,250L1877,79Z" fill="#9d7f9f" stroke="#9d7f9f"/><path d="M1877,79L1722,250L1917,211Z" fill="#8d7f96" stroke="#8d7f96"/><path d="M1877,79L1917,211L2024,174Z" fill="#847f8b" stroke="#847f8b"/><path d="M1877,79L2024,174L2037,44Z" fill="#858086" stroke="#858086"/><path d="M2037,44L2024,174L2048,494Z" fill="#6e7c80" stroke="#6e7c80"/><path d="M-111,184L-108,932L-93,376Z" fill="#d3caee" stroke="#d3caee"/><path d="M-111,184L-93,376L49,241Z" fill="#e7f7ff" stroke="#e7f7ff"/><path d="M49,241L-93,376L121,434Z" fill="#d6e8fc" stroke="#d6e8fc"/><path d="M49,241L121,434L167,255Z" fill="#d7ecfc" stroke="#d7ecfc"/><path d="M167,255L121,434L258,347Z" fill="#cee3f8" stroke="#cee3f8"/><path d="M167,255L258,347L373,279Z" fill="#d0e7f8" stroke="#d0e7f8"/><path d="M373,279L258,347L391,325Z" fill="#c6e0f6" stroke="#c6e0f6"/><path d="M373,279L391,325L531,202Z" fill="#c8e1f3" stroke="#c8e1f3"/><path d="M531,202L391,325L576,419Z" fill="#bad7f1" stroke="#bad7f1"/><path d="M531,202L576,419L622,206Z" fill="#bbd8ef" stroke="#bbd8ef"/><path d="M622,206L576,419L720,329Z" fill="#afcfed" stroke="#afcfed"/><path d="M622,206L720,329L783,270Z" fill="#b5d0ea" stroke="#b5d0ea"/><path d="M783,270L720,329L797,361Z" fill="#a9c3e7" stroke="#a9c3e7"/><path d="M783,270L797,361L994,317Z" fill="#a6bce3" stroke="#a6bce3"/><path d="M783,270L994,317L963,176Z" fill="#b1bee0" stroke="#b1bee0"/><path d="M963,176L994,317L1184,249Z" fill="#b3b2d9" stroke="#b3b2d9"/><path d="M1184,249L994,317L1160,347Z" fill="#a8a4d6" stroke="#a8a4d6"/><path d="M1184,249L1160,347L1288,405Z" fill="#a296d1" stroke="#a296d1"/><path d="M1184,249L1288,405L1315,233Z" fill="#a896cf" stroke="#a896cf"/><path d="M1315,233L1288,405L1387,278Z" fill="#a58dca" stroke="#a58dca"/><path d="M1387,278L1288,405L1411,366Z" fill="#9e82c6" stroke="#9e82c6"/><path d="M1387,278L1411,366L1521,218Z" fill="#a783c2" stroke="#a783c2"/><path d="M1521,218L1411,366L1629,394Z" fill="#9b77bb" stroke="#9b77bb"/><path d="M1521,218L1629,394L1722,250Z" fill="#9678af" stroke="#9678af"/><path d="M1722,250L1629,394L1759,358Z" fill="#846ea5" stroke="#846ea5"/><path d="M1722,250L1759,358L1843,316Z" fill="#7f729d" stroke="#7f729d"/><path d="M1722,250L1843,316L1917,211Z" fill="#827997" stroke="#827997"/><path d="M1917,211L1843,316L1993,377Z" fill="#70738d" stroke="#70738d"/><path d="M1917,211L1993,377L2024,174Z" fill="#717986" stroke="#717986"/><path d="M2024,174L1993,377L2048,494Z" fill="#5c6b7f" stroke="#5c6b7f"/><path d="M-93,376L-108,932L-85,554Z" fill="#d1ade0" stroke="#d1ade0"/><path d="M-93,376L-85,554L35,565Z" fill="#d2caee" stroke="#d2caee"/><path d="M-93,376L35,565L121,434Z" fill="#ced1f1" stroke="#ced1f1"/><path d="M121,434L35,565L130,633Z" fill="#cabae6" stroke="#cabae6"/><path d="M121,434L130,633L236,467Z" fill="#c6bfe8" stroke="#c6bfe8"/><path d="M121,434L236,467L258,347Z" fill="#c6d4f2" stroke="#c6d4f2"/><path d="M258,347L236,467L422,495Z" fill="#bdcaed" stroke="#bdcaed"/><path d="M258,347L422,495L391,325Z" fill="#bdd0f0" stroke="#bdd0f0"/><path d="M391,325L422,495L576,419Z" fill="#b2c5ea" stroke="#b2c5ea"/><path d="M576,419L422,495L557,500Z" fill="#acb5e2" stroke="#acb5e2"/><path d="M576,419L557,500L672,582Z" fill="#a6aadd" stroke="#a6aadd"/><path d="M576,419L672,582L720,329Z" fill="#a2b4e2" stroke="#a2b4e2"/><path d="M720,329L672,582L797,361Z" fill="#a0b2e0" stroke="#a0b2e0"/><path d="M797,361L672,582L883,491Z" fill="#9da0d8" stroke="#9da0d8"/><path d="M797,361L883,491L994,317Z" fill="#9eaadb" stroke="#9eaadb"/><path d="M994,317L883,491L999,531Z" fill="#9a97d3" stroke="#9a97d3"/><path d="M994,317L999,531L1095,538Z" fill="#9a8ccd" stroke="#9a8ccd"/><path d="M994,317L1095,538L1160,347Z" fill="#9d95d1" stroke="#9d95d1"/><path d="M1160,347L1095,538L1217,495Z" fill="#9980c8" stroke="#9980c8"/><path d="M1160,347L1217,495L1288,405Z" fill="#9a83c9" stroke="#9a83c9"/><path d="M1288,405L1217,495L1409,548Z" fill="#976bbd" stroke="#976bbd"/><path d="M1288,405L1409,548L1411,366Z" fill="#966ebd" stroke="#966ebd"/><path d="M1411,366L1409,548L1561,520Z" fill="#955bb2" stroke="#955bb2"/><path d="M1411,366L1561,520L1629,394Z" fill="#9061b0" stroke="#9061b0"/><path d="M1629,394L1561,520L1680,511Z" fill="#8453a0" stroke="#8453a0"/><path d="M1629,394L1680,511L1759,358Z" fill="#7d5d9f" stroke="#7d5d9f"/><path d="M1759,358L1680,511L1842,542Z" fill="#745191" stroke="#745191"/><path d="M1759,358L1842,542L1843,316Z" fill="#706092" stroke="#706092"/><path d="M1843,316L1842,542L1993,377Z" fill="#665e88" stroke="#665e88"/><path d="M1993,377L1842,542L2048,494Z" fill="#5b517a" stroke="#5b517a"/><path d="M-85,554L-108,932L-85,697Z" fill="#ce97cf" stroke="#ce97cf"/><path d="M-85,554L-85,697L35,565Z" fill="#d0b1e2" stroke="#d0b1e2"/><path d="M35,565L-85,697L130,633Z" fill="#cca8de" stroke="#cca8de"/><path d="M236,467L130,633L243,690Z" fill="#c3aade" stroke="#c3aade"/><path d="M236,467L243,690L363,671Z" fill="#bda2da" stroke="#bda2da"/><path d="M236,467L363,671L422,495Z" fill="#baaedf" stroke="#baaedf"/><path d="M422,495L363,671L496,719Z" fill="#b195d3" stroke="#b195d3"/><path d="M422,495L496,719L557,500Z" fill="#ae9fd7" stroke="#ae9fd7"/><path d="M557,500L496,719L672,582Z" fill="#a694d2" stroke="#a694d2"/><path d="M672,582L496,719L708,666Z" fill="#a185ca" stroke="#a185ca"/><path d="M672,582L708,666L843,685Z" fill="#9c7dc7" stroke="#9c7dc7"/><path d="M672,582L843,685L883,491Z" fill="#9b86ca" stroke="#9b86ca"/><path d="M883,491L843,685L999,531Z" fill="#997fc7" stroke="#997fc7"/><path d="M999,531L843,685L1016,642Z" fill="#986fbf" stroke="#986fbf"/><path d="M999,531L1016,642L1095,538Z" fill="#9972c1" stroke="#9972c1"/><path d="M1095,538L1016,642L1148,653Z" fill="#9863ba" stroke="#9863ba"/><path d="M1095,538L1148,653L1225,622Z" fill="#975eb7" stroke="#975eb7"/><path d="M1095,538L1225,622L1217,495Z" fill="#9968bc" stroke="#9968bc"/><path d="M1217,495L1225,622L1409,548Z" fill="#975db6" stroke="#975db6"/><path d="M1409,548L1225,622L1465,701Z" fill="#9443a9" stroke="#9443a9"/><path d="M1409,548L1465,701L1561,520Z" fill="#933ea3" stroke="#933ea3"/><path d="M1561,520L1465,701L1608,696Z" fill="#8c2f97" stroke="#8c2f97"/><path d="M1561,520L1608,696L1680,511Z" fill="#843b96" stroke="#843b96"/><path d="M1680,511L1608,696L1778,669Z" fill="#7a2d88" stroke="#7a2d88"/><path d="M1680,511L1778,669L1842,542Z" fill="#723885" stroke="#723885"/><path d="M1842,542L1778,669L1865,716Z" fill="#692976" stroke="#692976"/><path d="M1842,542L1865,716L2005,676Z" fill="#60286d" stroke="#60286d"/><path d="M1842,542L2005,676L2048,494Z" fill="#5a396f" stroke="#5a396f"/><path d="M2048,494L2005,676L2005,773Z" fill="#522760" stroke="#522760"/><path d="M2048,494L2005,773L2028,923Z" fill="#4e1750" stroke="#4e1750"/><path d="M-85,697L-108,932L-59,824Z" fill="#bc88ba" stroke="#bc88ba"/><path d="M-85,697L-59,824L95,831Z" fill="#c28cc2" stroke="#c28cc2"/><path d="M-85,697L95,831L130,633Z" fill="#c896cf" stroke="#c896cf"/><path d="M130,633L95,831L243,690Z" fill="#c292cd" stroke="#c292cd"/><path d="M243,690L95,831L232,880Z" fill="#b382b9" stroke="#b382b9"/><path d="M243,690L232,880L346,844Z" fill="#ab7db6" stroke="#ab7db6"/><path d="M243,690L346,844L363,671Z" fill="#b686c5" stroke="#b686c5"/><path d="M363,671L346,844L496,719Z" fill="#af7fc1" stroke="#af7fc1"/><path d="M496,719L346,844L482,862Z" fill="#9d72af" stroke="#9d72af"/><path d="M496,719L482,862L667,835Z" fill="#966dad" stroke="#966dad"/><path d="M496,719L667,835L708,666Z" fill="#9e74bb" stroke="#9e74bb"/><path d="M708,666L667,835L854,785Z" fill="#9766b1" stroke="#9766b1"/><path d="M708,666L854,785L843,685Z" fill="#976ab8" stroke="#976ab8"/><path d="M843,685L854,785L1016,642Z" fill="#9562b5" stroke="#9562b5"/><path d="M1016,642L854,785L997,827Z" fill="#9454aa" stroke="#9454aa"/><path d="M1016,642L997,827L1086,835Z" fill="#9049a2" stroke="#9049a2"/><path d="M1016,642L1086,835L1148,653Z" fill="#954faa" stroke="#954faa"/><path d="M1148,653L1086,835L1316,791Z" fill="#923c9d" stroke="#923c9d"/><path d="M1148,653L1316,791L1225,622Z" fill="#9445a8" stroke="#9445a8"/><path d="M1225,622L1316,791L1465,701Z" fill="#92369e" stroke="#92369e"/><path d="M1465,701L1316,791L1420,853Z" fill="#892089" stroke="#892089"/><path d="M1465,701L1420,853L1590,845Z" fill="#82137d" stroke="#82137d"/><path d="M1465,701L1590,845L1608,696Z" fill="#871983" stroke="#871983"/><path d="M1608,696L1590,845L1675,796Z" fill="#781174" stroke="#781174"/><path d="M1608,696L1675,796L1778,669Z" fill="#781a79" stroke="#781a79"/><path d="M1778,669L1675,796L1845,816Z" fill="#6c1168" stroke="#6c1168"/><path d="M1778,669L1845,816L1865,716Z" fill="#661766" stroke="#661766"/><path d="M1865,716L1845,816L2005,773Z" fill="#591056" stroke="#591056"/><path d="M1865,716L2005,773L2005,676Z" fill="#571959" stroke="#571959"/><path d="M-59,824L-108,932L95,831Z" fill="#ac80ad" stroke="#ac80ad"/><path d="M95,831L-108,932L122,1032Z" fill="#957d99" stroke="#957d99"/><path d="M95,831L122,1032L232,880Z" fill="#94799b" stroke="#94799b"/><path d="M232,880L122,1032L246,1005Z" fill="#81778a" stroke="#81778a"/><path d="M232,880L246,1005L405,932Z" fill="#837291" stroke="#837291"/><path d="M232,880L405,932L346,844Z" fill="#90709e" stroke="#90709e"/><path d="M346,844L405,932L482,862Z" fill="#8b6b9d" stroke="#8b6b9d"/><path d="M482,862L405,932L476,1025Z" fill="#77688b" stroke="#77688b"/><path d="M482,862L476,1025L667,835Z" fill="#796492" stroke="#796492"/><path d="M667,835L476,1025L726,924Z" fill="#6d5f8a" stroke="#6d5f8a"/><path d="M667,835L726,924L854,785Z" fill="#7e589a" stroke="#7e589a"/><path d="M854,785L726,924L801,950Z" fill="#71518d" stroke="#71518d"/><path d="M854,785L801,950L985,921Z" fill="#6f4989" stroke="#6f4989"/><path d="M854,785L985,921L997,827Z" fill="#7b4591" stroke="#7b4591"/><path d="M997,827L985,921L1086,835Z" fill="#763b89" stroke="#763b89"/><path d="M1086,835L985,921L1182,1024Z" fill="#633474" stroke="#633474"/><path d="M1086,835L1182,1024L1316,791Z" fill="#6e297b" stroke="#6e297b"/><path d="M1316,791L1182,1024L1307,1016Z" fill="#5c2267" stroke="#5c2267"/><path d="M1316,791L1307,1016L1420,853Z" fill="#6c1971" stroke="#6c1971"/><path d="M1420,853L1307,1016L1398,1001Z" fill="#57165b" stroke="#57165b"/><path d="M1420,853L1398,1001L1561,975Z" fill="#590c58" stroke="#590c58"/><path d="M1420,853L1561,975L1590,845Z" fill="#640761" stroke="#640761"/><path d="M1590,845L1561,975L1679,927Z" fill="#530450" stroke="#530450"/><path d="M1590,845L1679,927L1675,796Z" fill="#5f045c" stroke="#5f045c"/><path d="M1675,796L1679,927L1845,816Z" fill="#580455" stroke="#580455"/><path d="M1845,816L1679,927L1862,995Z" fill="#3d003c" stroke="#3d003c"/><path d="M1845,816L1862,995L2028,923Z" fill="#2f002f" stroke="#2f002f"/><path d="M1845,816L2028,923L2005,773Z" fill="#3e053d" stroke="#3e053d"/><path d="M-108,932L-35,1126L122,1032Z" fill="#7c7f7f" stroke="#7c7f7f"/><path d="M122,1032L-35,1126L35,1161Z" fill="#7a7d7e" stroke="#7a7d7e"/><path d="M122,1032L35,1161L281,1173Z" fill="#74797c" stroke="#74797c"/><path d="M122,1032L281,1173L246,1005Z" fill="#70767a" stroke="#70767a"/><path d="M246,1005L281,1173L417,1115Z" fill="#687077" stroke="#687077"/><path d="M246,1005L417,1115L405,932Z" fill="#686e79" stroke="#686e79"/><path d="M405,932L417,1115L476,1025Z" fill="#606975" stroke="#606975"/><path d="M476,1025L417,1115L510,1161Z" fill="#5d6872" stroke="#5d6872"/><path d="M476,1025L510,1161L635,1110Z" fill="#576470" stroke="#576470"/><path d="M476,1025L635,1110L726,924Z" fill="#536071" stroke="#536071"/><path d="M726,924L635,1110L801,950Z" fill="#555773" stroke="#555773"/><path d="M801,950L635,1110L815,1159Z" fill="#4b5468" stroke="#4b5468"/><path d="M801,950L815,1159L989,1141Z" fill="#464a63" stroke="#464a63"/><path d="M801,950L989,1141L985,921Z" fill="#4d4467" stroke="#4d4467"/><path d="M985,921L989,1141L1142,1097Z" fill="#46395a" stroke="#46395a"/><path d="M985,921L1142,1097L1182,1024Z" fill="#4a325c" stroke="#4a325c"/><path d="M1182,1024L1142,1097L1257,1105Z" fill="#452953" stroke="#452953"/><path d="M1182,1024L1257,1105L1307,1016Z" fill="#452450" stroke="#452450"/><path d="M1307,1016L1257,1105L1427,1091Z" fill="#431b4b" stroke="#431b4b"/><path d="M1307,1016L1427,1091L1398,1001Z" fill="#431547" stroke="#431547"/><path d="M1398,1001L1427,1091L1561,975Z" fill="#430b43" stroke="#430b43"/><path d="M1561,975L1427,1091L1562,1077Z" fill="#3e073c" stroke="#3e073c"/><path d="M1561,975L1562,1077L1732,1072Z" fill="#320330" stroke="#320330"/><path d="M1561,975L1732,1072L1679,927Z" fill="#370236" stroke="#370236"/><path d="M1679,927L1732,1072L1862,995Z" fill="#290028" stroke="#290028"/><path d="M1862,995L1732,1072L1899,1125Z" fill="#180017" stroke="#180017"/><path d="M1862,995L1899,1125L2019,1092Z" fill="#0c000c" stroke="#0c000c"/><path d="M1862,995L2019,1092L2028,923Z" fill="#0e000f" stroke="#0e000f"/><path d="M281,1173L815,1159L510,1161Z" fill="#576470" stroke="#576470"/><path d="M281,1173L510,1161L417,1115Z" fill="#626b74" stroke="#626b74"/><path d="M510,1161L815,1159L635,1110Z" fill="#4f5d6d" stroke="#4f5d6d"/><path d="M815,1159L1899,1125L989,1141Z" fill="#452551" stroke="#452551"/><path d="M989,1141L1899,1125L1257,1105Z" fill="#431547" stroke="#431547"/><path d="M989,1141L1257,1105L1142,1097Z" fill="#463056" stroke="#463056"/><path d="M1257,1105L1899,1125L1427,1091Z" fill="#3d073a" stroke="#3d073a"/><path d="M1427,1091L1899,1125L1562,1077Z" fill="#30032f" stroke="#30032f"/><path d="M1562,1077L1899,1125L1732,1072Z" fill="#240023" stroke="#240023"/></g></svg>