<svg width="1574" height="704"  viewBox="0 0 1574 704" xmlns="http://www.w3.org/2000/svg"><g><path d="M-36,-35L-56,37L73,72Z" fill="#f3fbfd" stroke="#f3fbfd"/><path d="M-36,-35L73,72L73,-54Z" fill="#f3f9fc" stroke="#f3f9fc"/><path d="M-36,-35L73,-54L124,-65Z" fill="#f1f8fb" stroke="#f1f8fb"/><path d="M73,-54L73,72L153,63Z" fill="#e9f4f9" stroke="#e9f4f9"/><path d="M73,-54L153,63L124,-65Z" fill="#ecf4f9" stroke="#ecf4f9"/><path d="M124,-65L153,63L196,-37Z" fill="#e8f1f7" stroke="#e8f1f7"/><path d="M124,-65L196,-37L340,-74Z" fill="#e2edf5" stroke="#e2edf5"/><path d="M196,-37L153,63L213,8Z" fill="#e3eef6" stroke="#e3eef6"/><path d="M196,-37L213,8L299,-4Z" fill="#e1ecf4" stroke="#e1ecf4"/><path d="M196,-37L299,-4L340,-74Z" fill="#dde9f3" stroke="#dde9f3"/><path d="M299,-4L213,8L289,48Z" fill="#dbe9f3" stroke="#dbe9f3"/><path d="M299,-4L289,48L382,33Z" fill="#d5e5f1" stroke="#d5e5f1"/><path d="M299,-4L382,33L340,-74Z" fill="#d8e4f0" stroke="#d8e4f0"/><path d="M340,-74L382,33L467,-66Z" fill="#d4dfed" stroke="#d4dfed"/><path d="M340,-74L467,-66L703,-72Z" fill="#ced6e9" stroke="#ced6e9"/><path d="M467,-66L382,33L437,59Z" fill="#d1dcec" stroke="#d1dcec"/><path d="M467,-66L437,59L533,43Z" fill="#cdd7ea" stroke="#cdd7ea"/><path d="M467,-66L533,43L532,-64Z" fill="#cdd5e8" stroke="#cdd5e8"/><path d="M467,-66L532,-64L703,-72Z" fill="#cad0e6" stroke="#cad0e6"/><path d="M532,-64L533,43L578,25Z" fill="#cbd2e7" stroke="#cbd2e7"/><path d="M532,-64L578,25L611,-37Z" fill="#c9d0e5" stroke="#c9d0e5"/><path d="M532,-64L611,-37L703,-72Z" fill="#c7cce3" stroke="#c7cce3"/><path d="M611,-37L578,25L689,1Z" fill="#c6cbe3" stroke="#c6cbe3"/><path d="M611,-37L689,1L703,-72Z" fill="#c6c7e1" stroke="#c6c7e1"/><path d="M703,-72L689,1L785,-18Z" fill="#c5c1de" stroke="#c5c1de"/><path d="M703,-72L785,-18L848,-32Z" fill="#c5bcdb" stroke="#c5bcdb"/><path d="M703,-72L848,-32L912,-58Z" fill="#c5b7d9" stroke="#c5b7d9"/><path d="M703,-72L912,-58L1127,-62Z" fill="#c4aed5" stroke="#c4aed5"/><path d="M703,-72L1127,-62L1515,-60Z" fill="#c298c8" stroke="#c298c8"/><path d="M703,-72L1515,-60L1661,-59Z" fill="#c083bb" stroke="#c083bb"/><path d="M785,-18L689,1L783,21Z" fill="#c5bedd" stroke="#c5bedd"/><path d="M785,-18L783,21L859,12Z" fill="#c4b9da" stroke="#c4b9da"/><path d="M785,-18L859,12L848,-32Z" fill="#c4b6d9" stroke="#c4b6d9"/><path d="M848,-32L859,12L912,-58Z" fill="#c4b2d7" stroke="#c4b2d7"/><path d="M912,-58L859,12L957,2Z" fill="#c4aed5" stroke="#c4aed5"/><path d="M912,-58L957,2L1026,-19Z" fill="#c4a8d2" stroke="#c4a8d2"/><path d="M912,-58L1026,-19L1127,-62Z" fill="#c3a2ce" stroke="#c3a2ce"/><path d="M1026,-19L957,2L1024,8Z" fill="#c3a4cf" stroke="#c3a4cf"/><path d="M1026,-19L1024,8L1112,13Z" fill="#c39ecc" stroke="#c39ecc"/><path d="M1026,-19L1112,13L1100,-41Z" fill="#c29cca" stroke="#c29cca"/><path d="M1026,-19L1100,-41L1127,-62Z" fill="#c29bca" stroke="#c29bca"/><path d="M1100,-41L1112,13L1123,4Z" fill="#c298c8" stroke="#c298c8"/><path d="M1100,-41L1123,4L1127,-62Z" fill="#c297c7" stroke="#c297c7"/><path d="M1127,-62L1123,4L1204,12Z" fill="#c193c5" stroke="#c193c5"/><path d="M1127,-62L1204,12L1230,-16Z" fill="#c18fc3" stroke="#c18fc3"/><path d="M1127,-62L1230,-16L1329,-52Z" fill="#c18bc0" stroke="#c18bc0"/><path d="M1127,-62L1329,-52L1515,-60Z" fill="#c080b9" stroke="#c080b9"/><path d="M1230,-16L1204,12L1309,69Z" fill="#bd88bf" stroke="#bd88bf"/><path d="M1230,-16L1309,69L1329,-52Z" fill="#c084bc" stroke="#c084bc"/><path d="M1329,-52L1309,69L1390,59Z" fill="#bb7fb8" stroke="#bb7fb8"/><path d="M1329,-52L1390,59L1406,-8Z" fill="#bf80b6" stroke="#bf80b6"/><path d="M1329,-52L1406,-8L1515,-60Z" fill="#be80b3" stroke="#be80b3"/><path d="M1406,-8L1390,59L1491,7Z" fill="#bb7fb2" stroke="#bb7fb2"/><path d="M1406,-8L1491,7L1515,-60Z" fill="#be80af" stroke="#be80af"/><path d="M1515,-60L1491,7L1570,19Z" fill="#bd80ac" stroke="#bd80ac"/><path d="M1515,-60L1570,19L1593,-14Z" fill="#bd80a9" stroke="#bd80a9"/><path d="M1515,-60L1593,-14L1661,-59Z" fill="#bd80a7" stroke="#bd80a7"/><path d="M1593,-14L1570,19L1658,34Z" fill="#ba7fa6" stroke="#ba7fa6"/><path d="M1593,-14L1658,34L1661,-59Z" fill="#bc80a4" stroke="#bc80a4"/><path d="M1661,-59L1658,34L1667,338Z" fill="#ac7ca2" stroke="#ac7ca2"/><path d="M-56,37L-80,159L33,124Z" fill="#e9faff" stroke="#e9faff"/><path d="M-56,37L33,124L73,72Z" fill="#e9f8fd" stroke="#e9f8fd"/><path d="M73,72L33,124L109,143Z" fill="#dff3fb" stroke="#dff3fb"/><path d="M73,72L109,143L153,63Z" fill="#def1f9" stroke="#def1f9"/><path d="M153,63L109,143L215,84Z" fill="#d9edf7" stroke="#d9edf7"/><path d="M153,63L215,84L213,8Z" fill="#ddedf6" stroke="#ddedf6"/><path d="M213,8L215,84L289,48Z" fill="#d9eaf4" stroke="#d9eaf4"/><path d="M289,48L215,84L286,132Z" fill="#d1e7f3" stroke="#d1e7f3"/><path d="M289,48L286,132L382,33Z" fill="#cee3f1" stroke="#cee3f1"/><path d="M382,33L286,132L323,160Z" fill="#c8e1f1" stroke="#c8e1f1"/><path d="M382,33L323,160L437,59Z" fill="#c9ddee" stroke="#c9ddee"/><path d="M437,59L323,160L463,92Z" fill="#c4dbed" stroke="#c4dbed"/><path d="M437,59L463,92L533,43Z" fill="#c6d6ea" stroke="#c6d6ea"/><path d="M533,43L463,92L557,105Z" fill="#c1d2e8" stroke="#c1d2e8"/><path d="M533,43L557,105L578,25Z" fill="#c2cfe6" stroke="#c2cfe6"/><path d="M578,25L557,105L630,85Z" fill="#becce5" stroke="#becce5"/><path d="M578,25L630,85L689,1Z" fill="#c0c9e3" stroke="#c0c9e3"/><path d="M689,1L630,85L667,133Z" fill="#bbc5e1" stroke="#bbc5e1"/><path d="M689,1L667,133L783,21Z" fill="#bec0df" stroke="#bec0df"/><path d="M783,21L667,133L761,149Z" fill="#b6bcdd" stroke="#b6bcdd"/><path d="M783,21L761,149L804,118Z" fill="#b6b8db" stroke="#b6b8db"/><path d="M783,21L804,118L859,12Z" fill="#bdb6da" stroke="#bdb6da"/><path d="M859,12L804,118L927,103Z" fill="#b9b0d7" stroke="#b9b0d7"/><path d="M859,12L927,103L957,2Z" fill="#beacd5" stroke="#beacd5"/><path d="M957,2L927,103L1042,84Z" fill="#baa5d1" stroke="#baa5d1"/><path d="M957,2L1042,84L1024,8Z" fill="#bfa3cf" stroke="#bfa3cf"/><path d="M1024,8L1042,84L1112,13Z" fill="#bd9dcb" stroke="#bd9dcb"/><path d="M1112,13L1042,84L1143,102Z" fill="#b897c9" stroke="#b897c9"/><path d="M1112,13L1143,102L1123,4Z" fill="#bc95c7" stroke="#bc95c7"/><path d="M1123,4L1143,102L1204,12Z" fill="#bb91c5" stroke="#bb91c5"/><path d="M1204,12L1143,102L1275,114Z" fill="#b58bc1" stroke="#b58bc1"/><path d="M1204,12L1275,114L1309,69Z" fill="#b784be" stroke="#b784be"/><path d="M1309,69L1275,114L1350,122Z" fill="#b17eba" stroke="#b17eba"/><path d="M1309,69L1350,122L1390,97Z" fill="#b17cb8" stroke="#b17cb8"/><path d="M1309,69L1390,97L1390,59Z" fill="#b47db7" stroke="#b47db7"/><path d="M1390,59L1390,97L1444,147Z" fill="#b07cb4" stroke="#b07cb4"/><path d="M1390,59L1444,147L1491,7Z" fill="#b47db1" stroke="#b47db1"/><path d="M1491,7L1444,147L1576,111Z" fill="#b17dad" stroke="#b17dad"/><path d="M1491,7L1576,111L1570,19Z" fill="#b67eaa" stroke="#b67eaa"/><path d="M1570,19L1576,111L1658,34Z" fill="#b47ea6" stroke="#b47ea6"/><path d="M1658,34L1576,111L1615,138Z" fill="#ae7ca5" stroke="#ae7ca5"/><path d="M1658,34L1615,138L1623,164Z" fill="#ac7ca4" stroke="#ac7ca4"/><path d="M1658,34L1623,164L1667,338Z" fill="#a172a1" stroke="#a172a1"/><path d="M-80,159L-65,757L-66,565Z" fill="#cca2d6" stroke="#cca2d6"/><path d="M-80,159L-66,565L-44,479Z" fill="#ceb9e6" stroke="#ceb9e6"/><path d="M-80,159L-44,479L-69,186Z" fill="#d1dbf6" stroke="#d1dbf6"/><path d="M-80,159L-69,186L33,124Z" fill="#e2f6fe" stroke="#e2f6fe"/><path d="M33,124L-69,186L14,214Z" fill="#dceffb" stroke="#dceffb"/><path d="M33,124L14,214L105,206Z" fill="#d6eaf9" stroke="#d6eaf9"/><path d="M33,124L105,206L109,143Z" fill="#d7edf9" stroke="#d7edf9"/><path d="M109,143L105,206L222,194Z" fill="#cde3f5" stroke="#cde3f5"/><path d="M109,143L222,194L215,84Z" fill="#d0eaf6" stroke="#d0eaf6"/><path d="M215,84L222,194L286,132Z" fill="#cce6f4" stroke="#cce6f4"/><path d="M286,132L222,194L283,169Z" fill="#c5dff2" stroke="#c5dff2"/><path d="M286,132L283,169L323,160Z" fill="#c4dff1" stroke="#c4dff1"/><path d="M323,160L283,169L379,217Z" fill="#bdd7ee" stroke="#bdd7ee"/><path d="M323,160L379,217L411,218Z" fill="#b7cfeb" stroke="#b7cfeb"/><path d="M323,160L411,218L463,92Z" fill="#bdd6ec" stroke="#bdd6ec"/><path d="M463,92L411,218L504,240Z" fill="#b4cbe8" stroke="#b4cbe8"/><path d="M463,92L504,240L557,105Z" fill="#b7cfe8" stroke="#b7cfe8"/><path d="M557,105L504,240L614,182Z" fill="#b0c4e4" stroke="#b0c4e4"/><path d="M557,105L614,182L630,85Z" fill="#b5c9e4" stroke="#b5c9e4"/><path d="M630,85L614,182L667,133Z" fill="#b2c5e2" stroke="#b2c5e2"/><path d="M667,133L614,182L671,220Z" fill="#abbbdf" stroke="#abbbdf"/><path d="M667,133L671,220L762,180Z" fill="#aab6dd" stroke="#aab6dd"/><path d="M667,133L762,180L761,149Z" fill="#aeb9dd" stroke="#aeb9dd"/><path d="M761,149L762,180L820,172Z" fill="#abb0d9" stroke="#abb0d9"/><path d="M761,149L820,172L804,118Z" fill="#afb3da" stroke="#afb3da"/><path d="M804,118L820,172L927,103Z" fill="#b1b0d8" stroke="#b1b0d8"/><path d="M927,103L820,172L928,226Z" fill="#aba5d4" stroke="#aba5d4"/><path d="M927,103L928,226L962,130Z" fill="#ada3d3" stroke="#ada3d3"/><path d="M927,103L962,130L1042,84Z" fill="#b3a3d1" stroke="#b3a3d1"/><path d="M962,130L928,226L997,207Z" fill="#a799cf" stroke="#a799cf"/><path d="M962,130L997,207L1042,84Z" fill="#ae9fcf" stroke="#ae9fcf"/><path d="M1042,84L997,207L1095,196Z" fill="#aa95cb" stroke="#aa95cb"/><path d="M1042,84L1095,196L1143,102Z" fill="#af95c9" stroke="#af95c9"/><path d="M1143,102L1095,196L1193,186Z" fill="#a98ac4" stroke="#a98ac4"/><path d="M1143,102L1193,186L1275,114Z" fill="#ad89c2" stroke="#ad89c2"/><path d="M1275,114L1193,186L1269,199Z" fill="#a77ebd" stroke="#a77ebd"/><path d="M1275,114L1269,199L1327,173Z" fill="#a77aba" stroke="#a77aba"/><path d="M1275,114L1327,173L1350,122Z" fill="#ab7cba" stroke="#ab7cba"/><path d="M1350,122L1327,173L1436,196Z" fill="#a775b5" stroke="#a775b5"/><path d="M1350,122L1436,196L1444,147Z" fill="#a777b2" stroke="#a777b2"/><path d="M1350,122L1444,147L1390,97Z" fill="#ad7bb4" stroke="#ad7bb4"/><path d="M1444,147L1436,196L1549,197Z" fill="#a272ac" stroke="#a272ac"/><path d="M1444,147L1549,197L1576,111Z" fill="#a678ab" stroke="#a678ab"/><path d="M1576,111L1549,197L1615,138Z" fill="#a679a7" stroke="#a679a7"/><path d="M1615,138L1549,197L1623,164Z" fill="#a475a5" stroke="#a475a5"/><path d="M-69,186L-44,479L-17,332Z" fill="#cdcbef" stroke="#cdcbef"/><path d="M-69,186L-17,332L-14,270Z" fill="#d0ddf7" stroke="#d0ddf7"/><path d="M-69,186L-14,270L14,214Z" fill="#d6e5f9" stroke="#d6e5f9"/><path d="M14,214L-14,270L73,270Z" fill="#cddbf5" stroke="#cddbf5"/><path d="M14,214L73,270L105,206Z" fill="#cdddf5" stroke="#cdddf5"/><path d="M105,206L73,270L163,287Z" fill="#c4d4f1" stroke="#c4d4f1"/><path d="M105,206L163,287L222,194Z" fill="#c4d7f1" stroke="#c4d7f1"/><path d="M222,194L163,287L271,273Z" fill="#bbceed" stroke="#bbceed"/><path d="M222,194L271,273L283,169Z" fill="#bed5ee" stroke="#bed5ee"/><path d="M283,169L271,273L379,217Z" fill="#b8cfec" stroke="#b8cfec"/><path d="M379,217L271,273L392,308Z" fill="#aec1e7" stroke="#aec1e7"/><path d="M379,217L392,308L413,296Z" fill="#aabbe5" stroke="#aabbe5"/><path d="M379,217L413,296L411,218Z" fill="#aec2e6" stroke="#aec2e6"/><path d="M411,218L413,296L504,240Z" fill="#aabce4" stroke="#aabce4"/><path d="M504,240L413,296L520,261Z" fill="#a6b5e1" stroke="#a6b5e1"/><path d="M504,240L520,261L614,182Z" fill="#a8b9e1" stroke="#a8b9e1"/><path d="M614,182L520,261L613,292Z" fill="#a3b1de" stroke="#a3b1de"/><path d="M614,182L613,292L671,220Z" fill="#a2b0dd" stroke="#a2b0dd"/><path d="M671,220L613,292L667,304Z" fill="#9ba5d9" stroke="#9ba5d9"/><path d="M671,220L667,304L752,266Z" fill="#9ca2d7" stroke="#9ca2d7"/><path d="M671,220L752,266L762,180Z" fill="#a3a9d8" stroke="#a3a9d8"/><path d="M762,180L752,266L840,260Z" fill="#a0a0d5" stroke="#a0a0d5"/><path d="M762,180L840,260L820,172Z" fill="#a5a5d5" stroke="#a5a5d5"/><path d="M820,172L840,260L928,226Z" fill="#a29cd2" stroke="#a29cd2"/><path d="M928,226L840,260L905,269Z" fill="#9d91ce" stroke="#9d91ce"/><path d="M928,226L905,269L993,272Z" fill="#9c8bcb" stroke="#9c8bcb"/><path d="M928,226L993,272L997,207Z" fill="#9f8dcb" stroke="#9f8dcb"/><path d="M997,207L993,272L1079,272Z" fill="#9c83c6" stroke="#9c83c6"/><path d="M997,207L1079,272L1095,196Z" fill="#9f86c6" stroke="#9f86c6"/><path d="M1095,196L1079,272L1145,246Z" fill="#9d7cc2" stroke="#9d7cc2"/><path d="M1095,196L1145,246L1193,186Z" fill="#a27fc1" stroke="#a27fc1"/><path d="M1193,186L1145,246L1249,288Z" fill="#9c72bc" stroke="#9c72bc"/><path d="M1193,186L1249,288L1269,199Z" fill="#9e71ba" stroke="#9e71ba"/><path d="M1269,199L1249,288L1282,251Z" fill="#9a69b6" stroke="#9a69b6"/><path d="M1269,199L1282,251L1327,173Z" fill="#a06fb7" stroke="#a06fb7"/><path d="M1327,173L1282,251L1415,305Z" fill="#9a63b1" stroke="#9a63b1"/><path d="M1327,173L1415,305L1443,226Z" fill="#9a65ae" stroke="#9a65ae"/><path d="M1327,173L1443,226L1436,196Z" fill="#a06db0" stroke="#a06db0"/><path d="M1436,196L1443,226L1549,197Z" fill="#9e6baa" stroke="#9e6baa"/><path d="M1443,226L1415,305L1489,285Z" fill="#945ca8" stroke="#945ca8"/><path d="M1443,226L1489,285L1542,264Z" fill="#965fa6" stroke="#965fa6"/><path d="M1443,226L1542,264L1549,197Z" fill="#9a66a7" stroke="#9a66a7"/><path d="M1549,197L1542,264L1633,287Z" fill="#9661a1" stroke="#9661a1"/><path d="M1549,197L1633,287L1623,164Z" fill="#9b69a1" stroke="#9b69a1"/><path d="M1623,164L1633,287L1667,338Z" fill="#935e9c" stroke="#935e9c"/><path d="M-14,270L-17,332L73,270Z" fill="#c9d2f2" stroke="#c9d2f2"/><path d="M73,270L-17,332L59,351Z" fill="#c6c9ee" stroke="#c6c9ee"/><path d="M73,270L59,351L155,299Z" fill="#c1c8ed" stroke="#c1c8ed"/><path d="M73,270L155,299L163,287Z" fill="#beccee" stroke="#beccee"/><path d="M155,299L59,351L107,387Z" fill="#bfbde7" stroke="#bfbde7"/><path d="M155,299L107,387L205,344Z" fill="#bbbae6" stroke="#bbbae6"/><path d="M155,299L205,344L163,287Z" fill="#bac2ea" stroke="#bac2ea"/><path d="M163,287L205,344L271,273Z" fill="#b6c2e9" stroke="#b6c2e9"/><path d="M271,273L205,344L276,338Z" fill="#b3bbe5" stroke="#b3bbe5"/><path d="M271,273L276,338L392,308Z" fill="#adb9e5" stroke="#adb9e5"/><path d="M392,308L276,338L341,395Z" fill="#abacde" stroke="#abacde"/><path d="M392,308L341,395L387,424Z" fill="#a8a2d9" stroke="#a8a2d9"/><path d="M392,308L387,424L458,399Z" fill="#a69ed7" stroke="#a69ed7"/><path d="M392,308L458,399L413,296Z" fill="#a6a8dc" stroke="#a6a8dc"/><path d="M413,296L458,399L509,377Z" fill="#a39fd7" stroke="#a39fd7"/><path d="M413,296L509,377L520,261Z" fill="#a2aadc" stroke="#a2aadc"/><path d="M520,261L509,377L612,322Z" fill="#9ea1d8" stroke="#9ea1d8"/><path d="M520,261L612,322L613,292Z" fill="#9da6da" stroke="#9da6da"/><path d="M613,292L612,322L667,304Z" fill="#999ed6" stroke="#999ed6"/><path d="M667,304L612,322L664,397Z" fill="#9993d0" stroke="#9993d0"/><path d="M667,304L664,397L780,338Z" fill="#988ccd" stroke="#988ccd"/><path d="M667,304L780,338L752,266Z" fill="#9994d1" stroke="#9994d1"/><path d="M752,266L780,338L840,260Z" fill="#9993d0" stroke="#9993d0"/><path d="M840,260L780,338L813,340Z" fill="#988acc" stroke="#988acc"/><path d="M840,260L813,340L905,269Z" fill="#988ccd" stroke="#988ccd"/><path d="M905,269L813,340L947,388Z" fill="#977cc6" stroke="#977cc6"/><path d="M905,269L947,388L996,338Z" fill="#9777c3" stroke="#9777c3"/><path d="M905,269L996,338L993,272Z" fill="#987fc7" stroke="#987fc7"/><path d="M993,272L996,338L1079,272Z" fill="#9778c3" stroke="#9778c3"/><path d="M1079,272L996,338L1118,338Z" fill="#966ebd" stroke="#966ebd"/><path d="M1079,272L1118,338L1130,330Z" fill="#956abb" stroke="#956abb"/><path d="M1079,272L1130,330L1145,246Z" fill="#9671be" stroke="#9671be"/><path d="M1145,246L1130,330L1249,288Z" fill="#9569b9" stroke="#9569b9"/><path d="M1249,288L1130,330L1233,359Z" fill="#945bb2" stroke="#945bb2"/><path d="M1249,288L1233,359L1327,329Z" fill="#9354ae" stroke="#9354ae"/><path d="M1249,288L1327,329L1282,251Z" fill="#945cb1" stroke="#945cb1"/><path d="M1282,251L1327,329L1415,305Z" fill="#9356ad" stroke="#9356ad"/><path d="M1415,305L1327,329L1403,396Z" fill="#9249a4" stroke="#9249a4"/><path d="M1415,305L1403,396L1450,392Z" fill="#91439e" stroke="#91439e"/><path d="M1415,305L1450,392L1489,285Z" fill="#914da1" stroke="#914da1"/><path d="M1489,285L1450,392L1527,345Z" fill="#914a9d" stroke="#914a9d"/><path d="M1489,285L1527,345L1542,264Z" fill="#9155a0" stroke="#9155a0"/><path d="M1542,264L1527,345L1633,287Z" fill="#90559d" stroke="#90559d"/><path d="M1633,287L1527,345L1667,338Z" fill="#904e97" stroke="#904e97"/><path d="M-17,332L-44,479L5,448Z" fill="#c9b1e2" stroke="#c9b1e2"/><path d="M-17,332L5,448L59,351Z" fill="#c7bbe7" stroke="#c7bbe7"/><path d="M59,351L5,448L107,387Z" fill="#c3b3e3" stroke="#c3b3e3"/><path d="M107,387L5,448L140,420Z" fill="#c0abdf" stroke="#c0abdf"/><path d="M107,387L140,420L205,344Z" fill="#baafe1" stroke="#baafe1"/><path d="M205,344L140,420L163,429Z" fill="#b9abde" stroke="#b9abde"/><path d="M205,344L163,429L267,498Z" fill="#b4a0d9" stroke="#b4a0d9"/><path d="M205,344L267,498L276,338Z" fill="#b1a6dc" stroke="#b1a6dc"/><path d="M276,338L267,498L317,468Z" fill="#ad99d4" stroke="#ad99d4"/><path d="M276,338L317,468L341,395Z" fill="#aca0d8" stroke="#aca0d8"/><path d="M341,395L317,468L387,424Z" fill="#a995d3" stroke="#a995d3"/><path d="M458,399L387,424L453,411Z" fill="#a392d1" stroke="#a392d1"/><path d="M458,399L453,411L509,377Z" fill="#a193d1" stroke="#a193d1"/><path d="M509,377L453,411L483,474Z" fill="#a08cce" stroke="#a08cce"/><path d="M509,377L483,474L573,466Z" fill="#9d84c9" stroke="#9d84c9"/><path d="M509,377L573,466L612,322Z" fill="#9c8dce" stroke="#9c8dce"/><path d="M612,322L573,466L664,397Z" fill="#9987cb" stroke="#9987cb"/><path d="M664,397L573,466L590,499Z" fill="#9879c2" stroke="#9879c2"/><path d="M664,397L590,499L683,515Z" fill="#9671bd" stroke="#9671bd"/><path d="M664,397L683,515L709,426Z" fill="#9673c0" stroke="#9673c0"/><path d="M664,397L709,426L780,338Z" fill="#977fc7" stroke="#977fc7"/><path d="M780,338L709,426L771,474Z" fill="#9674c2" stroke="#9674c2"/><path d="M780,338L771,474L813,340Z" fill="#9779c4" stroke="#9779c4"/><path d="M813,340L771,474L866,440Z" fill="#966cbe" stroke="#966cbe"/><path d="M813,340L866,440L947,388Z" fill="#966ebf" stroke="#966ebf"/><path d="M947,388L866,440L947,404Z" fill="#9564ba" stroke="#9564ba"/><path d="M947,388L947,404L1014,426Z" fill="#9560b8" stroke="#9560b8"/><path d="M947,388L1014,426L996,338Z" fill="#9564b9" stroke="#9564b9"/><path d="M996,338L1014,426L1040,423Z" fill="#955eb6" stroke="#955eb6"/><path d="M996,338L1040,423L1118,338Z" fill="#9562b7" stroke="#9562b7"/><path d="M1118,338L1040,423L1134,457Z" fill="#9452af" stroke="#9452af"/><path d="M1118,338L1134,457L1222,402Z" fill="#934dac" stroke="#934dac"/><path d="M1118,338L1222,402L1130,330Z" fill="#9458b1" stroke="#9458b1"/><path d="M1130,330L1222,402L1233,359Z" fill="#9352ae" stroke="#9352ae"/><path d="M1233,359L1222,402L1308,415Z" fill="#9244a6" stroke="#9244a6"/><path d="M1233,359L1308,415L1327,329Z" fill="#9246a7" stroke="#9246a7"/><path d="M1327,329L1308,415L1403,396Z" fill="#923fa1" stroke="#923fa1"/><path d="M1403,396L1308,415L1393,424Z" fill="#91369c" stroke="#91369c"/><path d="M1403,396L1393,424L1453,432Z" fill="#903598" stroke="#903598"/><path d="M1403,396L1453,432L1450,392Z" fill="#903898" stroke="#903898"/><path d="M1450,392L1453,432L1533,439Z" fill="#8f3493" stroke="#8f3493"/><path d="M1450,392L1533,439L1527,345Z" fill="#903c95" stroke="#903c95"/><path d="M1527,345L1533,439L1656,439Z" fill="#8f378e" stroke="#8f378e"/><path d="M1527,345L1656,439L1667,338Z" fill="#8f4090" stroke="#8f4090"/><path d="M1667,338L1656,439L1667,774Z" fill="#8b1d75" stroke="#8b1d75"/><path d="M-44,479L-66,565L-32,517Z" fill="#c99bd2" stroke="#c99bd2"/><path d="M-44,479L-32,517L5,448Z" fill="#c8a3d8" stroke="#c8a3d8"/><path d="M5,448L-32,517L8,553Z" fill="#c69cd2" stroke="#c69cd2"/><path d="M5,448L8,553L99,545Z" fill="#c297cf" stroke="#c297cf"/><path d="M5,448L99,545L140,420Z" fill="#bf9ed5" stroke="#bf9ed5"/><path d="M140,420L99,545L163,429Z" fill="#ba9cd5" stroke="#ba9cd5"/><path d="M163,429L99,545L161,546Z" fill="#b892cc" stroke="#b892cc"/><path d="M163,429L161,546L267,498Z" fill="#b491cd" stroke="#b491cd"/><path d="M317,468L267,498L296,578Z" fill="#aa85c6" stroke="#aa85c6"/><path d="M317,468L296,578L398,560Z" fill="#a67dc0" stroke="#a67dc0"/><path d="M317,468L398,560L428,502Z" fill="#a47fc2" stroke="#a47fc2"/><path d="M317,468L428,502L387,424Z" fill="#a68acb" stroke="#a68acb"/><path d="M387,424L428,502L453,411Z" fill="#a48bcc" stroke="#a48bcc"/><path d="M453,411L428,502L483,474Z" fill="#a184c8" stroke="#a184c8"/><path d="M483,474L428,502L489,480Z" fill="#9f7dc3" stroke="#9f7dc3"/><path d="M483,474L489,480L573,466Z" fill="#9d7cc3" stroke="#9d7cc3"/><path d="M573,466L489,480L590,499Z" fill="#9b77c0" stroke="#9b77c0"/><path d="M709,426L683,515L726,505Z" fill="#9568b8" stroke="#9568b8"/><path d="M709,426L726,505L771,474Z" fill="#9569b9" stroke="#9569b9"/><path d="M771,474L726,505L851,563Z" fill="#9459af" stroke="#9459af"/><path d="M771,474L851,563L876,510Z" fill="#9354ac" stroke="#9354ac"/><path d="M771,474L876,510L866,440Z" fill="#945db3" stroke="#945db3"/><path d="M866,440L876,510L888,487Z" fill="#9458b0" stroke="#9458b0"/><path d="M866,440L888,487L947,404Z" fill="#955eb5" stroke="#955eb5"/><path d="M947,404L888,487L961,526Z" fill="#9454af" stroke="#9454af"/><path d="M947,404L961,526L1014,426Z" fill="#9454b0" stroke="#9454b0"/><path d="M1014,426L961,526L1028,578Z" fill="#9243a3" stroke="#9243a3"/><path d="M1014,426L1028,578L1040,423Z" fill="#9348a8" stroke="#9348a8"/><path d="M1040,423L1028,578L1114,490Z" fill="#9240a2" stroke="#9240a2"/><path d="M1040,423L1114,490L1134,457Z" fill="#9345a7" stroke="#9345a7"/><path d="M1134,457L1114,490L1183,537Z" fill="#91379d" stroke="#91379d"/><path d="M1134,457L1183,537L1222,402Z" fill="#923a9f" stroke="#923a9f"/><path d="M1222,402L1183,537L1253,531Z" fill="#902f98" stroke="#902f98"/><path d="M1222,402L1253,531L1308,415Z" fill="#91349d" stroke="#91349d"/><path d="M1308,415L1253,531L1356,510Z" fill="#8f2793" stroke="#8f2793"/><path d="M1308,415L1356,510L1393,424Z" fill="#902d96" stroke="#902d96"/><path d="M1393,424L1356,510L1378,513Z" fill="#8f258f" stroke="#8f258f"/><path d="M1393,424L1378,513L1453,432Z" fill="#8f2b92" stroke="#8f2b92"/><path d="M1453,432L1378,513L1471,512Z" fill="#8e248a" stroke="#8e248a"/><path d="M1453,432L1471,512L1521,495Z" fill="#8e2688" stroke="#8e2688"/><path d="M1453,432L1521,495L1533,439Z" fill="#8e2b8b" stroke="#8e2b8b"/><path d="M1533,439L1521,495L1616,540Z" fill="#8c2381" stroke="#8c2381"/><path d="M1533,439L1616,540L1656,439Z" fill="#8c2781" stroke="#8c2781"/><path d="M1656,439L1616,540L1637,572Z" fill="#8b1d77" stroke="#8b1d77"/><path d="M1656,439L1637,572L1667,774Z" fill="#880a67" stroke="#880a67"/><path d="M-32,517L-66,565L8,553Z" fill="#c794cc" stroke="#c794cc"/><path d="M8,553L-66,565L32,610Z" fill="#c48bc6" stroke="#c48bc6"/><path d="M8,553L32,610L99,545Z" fill="#bf89c5" stroke="#bf89c5"/><path d="M99,545L32,610L137,636Z" fill="#bb80be" stroke="#bb80be"/><path d="M99,545L137,636L161,546Z" fill="#b782c0" stroke="#b782c0"/><path d="M161,546L137,636L170,624Z" fill="#b47abb" stroke="#b47abb"/><path d="M161,546L170,624L296,578Z" fill="#b07bbc" stroke="#b07bbc"/><path d="M161,546L296,578L267,498Z" fill="#ae83c3" stroke="#ae83c3"/><path d="M398,560L296,578L395,610Z" fill="#a370b6" stroke="#a370b6"/><path d="M398,560L395,610L416,630Z" fill="#a068b1" stroke="#a068b1"/><path d="M398,560L416,630L508,562Z" fill="#9e68b2" stroke="#9e68b2"/><path d="M398,560L508,562L428,502Z" fill="#9f72ba" stroke="#9f72ba"/><path d="M428,502L508,562L489,480Z" fill="#9e76bd" stroke="#9e76bd"/><path d="M489,480L508,562L590,499Z" fill="#9b72bb" stroke="#9b72bb"/><path d="M590,499L508,562L561,598Z" fill="#9866b3" stroke="#9866b3"/><path d="M590,499L561,598L683,515Z" fill="#9564b3" stroke="#9564b3"/><path d="M683,515L561,598L671,651Z" fill="#9356a8" stroke="#9356a8"/><path d="M683,515L671,651L711,613Z" fill="#9250a5" stroke="#9250a5"/><path d="M683,515L711,613L726,505Z" fill="#9359ad" stroke="#9359ad"/><path d="M726,505L711,613L753,627Z" fill="#924ea5" stroke="#924ea5"/><path d="M726,505L753,627L851,563Z" fill="#924da6" stroke="#924da6"/><path d="M876,510L851,563L933,570Z" fill="#9246a4" stroke="#9246a4"/><path d="M876,510L933,570L961,526Z" fill="#9245a4" stroke="#9245a4"/><path d="M876,510L961,526L888,487Z" fill="#934daa" stroke="#934daa"/><path d="M961,526L933,570L1028,578Z" fill="#913a9d" stroke="#913a9d"/><path d="M1114,490L1028,578L1093,636Z" fill="#902d94" stroke="#902d94"/><path d="M1114,490L1093,636L1183,537Z" fill="#902a93" stroke="#902a93"/><path d="M1183,537L1093,636L1163,625Z" fill="#8e1d89" stroke="#8e1d89"/><path d="M1183,537L1163,625L1264,590Z" fill="#8e1b88" stroke="#8e1b88"/><path d="M1183,537L1264,590L1253,531Z" fill="#8f1f8c" stroke="#8f1f8c"/><path d="M1253,531L1264,590L1356,510Z" fill="#8e1a8a" stroke="#8e1a8a"/><path d="M1356,510L1264,590L1312,627Z" fill="#8d1082" stroke="#8d1082"/><path d="M1356,510L1312,627L1405,561Z" fill="#8d1181" stroke="#8d1181"/><path d="M1356,510L1405,561L1378,513Z" fill="#8d1a87" stroke="#8d1a87"/><path d="M1378,513L1405,561L1471,512Z" fill="#8d1a84" stroke="#8d1a84"/><path d="M1471,512L1405,561L1460,584Z" fill="#8c147e" stroke="#8c147e"/><path d="M1471,512L1460,584L1530,580Z" fill="#8b137a" stroke="#8b137a"/><path d="M1471,512L1530,580L1521,495Z" fill="#8c1a7d" stroke="#8c1a7d"/><path d="M1521,495L1530,580L1616,540Z" fill="#8b1879" stroke="#8b1879"/><path d="M1616,540L1530,580L1637,572Z" fill="#8a1271" stroke="#8a1271"/><path d="M-66,565L-65,757L-53,694Z" fill="#c680b6" stroke="#c680b6"/><path d="M-66,565L-53,694L32,610Z" fill="#c582be" stroke="#c582be"/><path d="M32,610L-53,694L11,685Z" fill="#c17cb6" stroke="#c17cb6"/><path d="M32,610L11,685L96,678Z" fill="#bd79b5" stroke="#bd79b5"/><path d="M32,610L96,678L137,636Z" fill="#ba76b6" stroke="#ba76b6"/><path d="M137,636L96,678L174,732Z" fill="#b473ad" stroke="#b473ad"/><path d="M137,636L174,732L170,624Z" fill="#b271af" stroke="#b271af"/><path d="M170,624L174,732L234,676Z" fill="#af6fac" stroke="#af6fac"/><path d="M170,624L234,676L296,578Z" fill="#ac6fb3" stroke="#ac6fb3"/><path d="M296,578L234,676L277,665Z" fill="#a96aaf" stroke="#a96aaf"/><path d="M296,578L277,665L396,645Z" fill="#a468af" stroke="#a468af"/><path d="M296,578L396,645L395,610Z" fill="#a269b1" stroke="#a269b1"/><path d="M395,610L396,645L416,630Z" fill="#9f61ac" stroke="#9f61ac"/><path d="M416,630L396,645L431,658Z" fill="#9e5ea9" stroke="#9e5ea9"/><path d="M416,630L431,658L519,654Z" fill="#9c5aa6" stroke="#9c5aa6"/><path d="M416,630L519,654L508,562Z" fill="#9b5dab" stroke="#9b5dab"/><path d="M508,562L519,654L561,598Z" fill="#985caa" stroke="#985caa"/><path d="M561,598L519,654L589,676Z" fill="#9552a2" stroke="#9552a2"/><path d="M561,598L589,676L671,651Z" fill="#934da0" stroke="#934da0"/><path d="M711,613L671,651L753,627Z" fill="#91449d" stroke="#91449d"/><path d="M753,627L671,651L792,713Z" fill="#904096" stroke="#904096"/><path d="M753,627L792,713L850,680Z" fill="#8f3a91" stroke="#8f3a91"/><path d="M753,627L850,680L851,563Z" fill="#913b99" stroke="#913b99"/><path d="M851,563L850,680L912,645Z" fill="#903595" stroke="#903595"/><path d="M851,563L912,645L933,570Z" fill="#913a9b" stroke="#913a9b"/><path d="M933,570L912,645L977,674Z" fill="#8f2d92" stroke="#8f2d92"/><path d="M933,570L977,674L1028,578Z" fill="#8f2e93" stroke="#8f2e93"/><path d="M1028,578L977,674L1093,636Z" fill="#8e238c" stroke="#8e238c"/><path d="M1093,636L977,674L1101,674Z" fill="#8d1f84" stroke="#8d1f84"/><path d="M1093,636L1101,674L1163,625Z" fill="#8d1883" stroke="#8d1883"/><path d="M1163,625L1101,674L1167,714Z" fill="#8c157d" stroke="#8c157d"/><path d="M1163,625L1167,714L1269,672Z" fill="#8b0e79" stroke="#8b0e79"/><path d="M1163,625L1269,672L1264,590Z" fill="#8c0d7e" stroke="#8c0d7e"/><path d="M1264,590L1269,672L1305,650Z" fill="#8c0579" stroke="#8c0579"/><path d="M1264,590L1305,650L1312,627Z" fill="#8c077b" stroke="#8c077b"/><path d="M1312,627L1305,650L1383,680Z" fill="#8a0073" stroke="#8a0073"/><path d="M1312,627L1383,680L1405,561Z" fill="#8b0476" stroke="#8b0476"/><path d="M1405,561L1383,680L1460,584Z" fill="#8b0776" stroke="#8b0776"/><path d="M1460,584L1383,680L1458,691Z" fill="#89006c" stroke="#89006c"/><path d="M1460,584L1458,691L1539,666Z" fill="#89006a" stroke="#89006a"/><path d="M1460,584L1539,666L1530,580Z" fill="#89076f" stroke="#89076f"/><path d="M1530,580L1539,666L1637,572Z" fill="#89086b" stroke="#89086b"/><path d="M1637,572L1539,666L1641,702Z" fill="#870062" stroke="#870062"/><path d="M1637,572L1641,702L1667,774Z" fill="#860058" stroke="#860058"/><path d="M-53,694L-65,757L11,685Z" fill="#c37fae" stroke="#c37fae"/><path d="M11,685L-65,757L60,798Z" fill="#bf7ca7" stroke="#bf7ca7"/><path d="M11,685L60,798L96,678Z" fill="#ba78a9" stroke="#ba78a9"/><path d="M96,678L60,798L104,800Z" fill="#b676a1" stroke="#b676a1"/><path d="M96,678L104,800L174,732Z" fill="#b374a3" stroke="#b374a3"/><path d="M234,676L174,732L293,754Z" fill="#aa6ca2" stroke="#aa6ca2"/><path d="M234,676L293,754L277,665Z" fill="#a76aa5" stroke="#a76aa5"/><path d="M277,665L293,754L337,763Z" fill="#a3689f" stroke="#a3689f"/><path d="M277,665L337,763L396,645Z" fill="#a265a4" stroke="#a265a4"/><path d="M396,645L337,763L433,730Z" fill="#9e609d" stroke="#9e609d"/><path d="M396,645L433,730L431,658Z" fill="#9d5ea2" stroke="#9d5ea2"/><path d="M431,658L433,730L519,654Z" fill="#9a5aa0" stroke="#9a5aa0"/><path d="M519,654L433,730L504,758Z" fill="#985898" stroke="#985898"/><path d="M519,654L504,758L586,723Z" fill="#955397" stroke="#955397"/><path d="M519,654L586,723L589,676Z" fill="#94519a" stroke="#94519a"/><path d="M589,676L586,723L647,739Z" fill="#914d93" stroke="#914d93"/><path d="M589,676L647,739L671,651Z" fill="#904b96" stroke="#904b96"/><path d="M671,651L647,739L792,713Z" fill="#8f4491" stroke="#8f4491"/><path d="M792,713L647,739L762,783Z" fill="#8e4187" stroke="#8e4187"/><path d="M792,713L762,783L847,766Z" fill="#8d3a82" stroke="#8d3a82"/><path d="M792,713L847,766L850,680Z" fill="#8d3787" stroke="#8d3787"/><path d="M850,680L847,766L946,791Z" fill="#8d3280" stroke="#8d3280"/><path d="M850,680L946,791L912,645Z" fill="#8e2f86" stroke="#8e2f86"/><path d="M912,645L946,791L977,674Z" fill="#8d2b84" stroke="#8d2b84"/><path d="M977,674L946,791L1006,759Z" fill="#8c287b" stroke="#8c287b"/><path d="M977,674L1006,759L1101,674Z" fill="#8c227f" stroke="#8c227f"/><path d="M1101,674L1006,759L1104,776Z" fill="#8b1d76" stroke="#8b1d76"/><path d="M1101,674L1104,776L1167,714Z" fill="#8b1775" stroke="#8b1775"/><path d="M1167,714L1104,776L1179,781Z" fill="#89146d" stroke="#89146d"/><path d="M1167,714L1179,781L1274,722Z" fill="#890e6c" stroke="#890e6c"/><path d="M1167,714L1274,722L1269,672Z" fill="#8a0a70" stroke="#8a0a70"/><path d="M1269,672L1274,722L1321,723Z" fill="#89056c" stroke="#89056c"/><path d="M1269,672L1321,723L1305,650Z" fill="#8a0370" stroke="#8a0370"/><path d="M1305,650L1321,723L1383,680Z" fill="#89006d" stroke="#89006d"/><path d="M1383,680L1321,723L1364,742Z" fill="#880066" stroke="#880066"/><path d="M1383,680L1364,742L1458,691Z" fill="#880065" stroke="#880065"/><path d="M1458,691L1364,742L1520,721Z" fill="#87005f" stroke="#87005f"/><path d="M1458,691L1520,721L1539,666Z" fill="#880060" stroke="#880060"/><path d="M1539,666L1520,721L1641,702Z" fill="#86005b" stroke="#86005b"/><path d="M1641,702L1520,721L1555,798Z" fill="#850053" stroke="#850053"/><path d="M1641,702L1555,798L1667,774Z" fill="#84004c" stroke="#84004c"/><path d="M104,800L1555,798L946,791Z" fill="#8b3377" stroke="#8b3377"/><path d="M104,800L946,791L762,783Z" fill="#8e4d85" stroke="#8e4d85"/><path d="M104,800L762,783L504,758Z" fill="#985a8e" stroke="#985a8e"/><path d="M104,800L504,758L337,763Z" fill="#a16796" stroke="#a16796"/><path d="M104,800L337,763L293,754Z" fill="#a76c98" stroke="#a76c98"/><path d="M104,800L293,754L174,732Z" fill="#ad6f9c" stroke="#ad6f9c"/><path d="M337,763L504,758L433,730Z" fill="#9a5d95" stroke="#9a5d95"/><path d="M504,758L762,783L647,739Z" fill="#8e4a89" stroke="#8e4a89"/><path d="M504,758L647,739L586,723Z" fill="#915090" stroke="#915090"/><path d="M762,783L946,791L847,766Z" fill="#8c357b" stroke="#8c357b"/><path d="M946,791L1555,798L1179,781Z" fill="#880b61" stroke="#880b61"/><path d="M946,791L1179,781L1104,776Z" fill="#8a1c6d" stroke="#8a1c6d"/><path d="M946,791L1104,776L1006,759Z" fill="#8a2372" stroke="#8a2372"/><path d="M1179,781L1555,798L1364,742Z" fill="#87005b" stroke="#87005b"/><path d="M1179,781L1364,742L1274,722Z" fill="#880666" stroke="#880666"/><path d="M1274,722L1364,742L1321,723Z" fill="#890166" stroke="#890166"/><path d="M1364,742L1555,798L1520,721Z" fill="#860057" stroke="#860057"/></g></svg>